<?xml version="1.0" standalone="no"?>
<!DOCTYPE svg PUBLIC "-//W3C//DTD SVG 1.1//EN" "http://www.w3.org/Graphics/SVG/1.1/DTD/svg11.dtd">
<svg width="585.47mm" height="837.95mm">
<line x1="0mm" x2="17mm" y1="40.06mm" y2="40.06mm" stroke="black" stroke-width="1"/>
<line x1="8.5mm" x2="8.5mm" y1="31.56mm" y2="48.56mm" stroke="black" stroke-width="1"/>
<line x1="0mm" x2="17mm" y1="71.62mm" y2="71.62mm" stroke="black" stroke-width="1"/>
<line x1="8.5mm" x2="8.5mm" y1="63.12mm" y2="80.12mm" stroke="black" stroke-width="1"/>
<line x1="0mm" x2="17mm" y1="103.18mm" y2="103.18mm" stroke="black" stroke-width="1"/>
<line x1="8.5mm" x2="8.5mm" y1="94.68mm" y2="111.68mm" stroke="black" stroke-width="1"/>
<line x1="0mm" x2="17mm" y1="134.74mm" y2="134.74mm" stroke="black" stroke-width="1"/>
<line x1="8.5mm" x2="8.5mm" y1="126.24mm" y2="143.24mm" stroke="black" stroke-width="1"/>
<line x1="0mm" x2="17mm" y1="166.3mm" y2="166.3mm" stroke="black" stroke-width="1"/>
<line x1="8.5mm" x2="8.5mm" y1="157.8mm" y2="174.8mm" stroke="black" stroke-width="1"/>
<line x1="0mm" x2="17mm" y1="197.86mm" y2="197.86mm" stroke="black" stroke-width="1"/>
<line x1="8.5mm" x2="8.5mm" y1="189.36mm" y2="206.36mm" stroke="black" stroke-width="1"/>
<line x1="0mm" x2="17mm" y1="229.42mm" y2="229.42mm" stroke="black" stroke-width="1"/>
<line x1="8.5mm" x2="8.5mm" y1="220.92mm" y2="237.92mm" stroke="black" stroke-width="1"/>
<line x1="0mm" x2="17mm" y1="260.98mm" y2="260.98mm" stroke="black" stroke-width="1"/>
<line x1="8.5mm" x2="8.5mm" y1="252.48mm" y2="269.48mm" stroke="black" stroke-width="1"/>
<line x1="0mm" x2="17mm" y1="292.54mm" y2="292.54mm" stroke="black" stroke-width="1"/>
<line x1="8.5mm" x2="8.5mm" y1="284.04mm" y2="301.04mm" stroke="black" stroke-width="1"/>
<line x1="0mm" x2="17mm" y1="324.1mm" y2="324.1mm" stroke="black" stroke-width="1"/>
<line x1="8.5mm" x2="8.5mm" y1="315.6mm" y2="332.6mm" stroke="black" stroke-width="1"/>
<line x1="0mm" x2="17mm" y1="355.66mm" y2="355.66mm" stroke="black" stroke-width="1"/>
<line x1="8.5mm" x2="8.5mm" y1="347.16mm" y2="364.16mm" stroke="black" stroke-width="1"/>
<line x1="0mm" x2="17mm" y1="387.22mm" y2="387.22mm" stroke="black" stroke-width="1"/>
<line x1="8.5mm" x2="8.5mm" y1="378.72mm" y2="395.72mm" stroke="black" stroke-width="1"/>
<line x1="0mm" x2="17mm" y1="418.78mm" y2="418.78mm" stroke="black" stroke-width="1"/>
<line x1="8.5mm" x2="8.5mm" y1="410.28mm" y2="427.28mm" stroke="black" stroke-width="1"/>
<line x1="0mm" x2="17mm" y1="450.34mm" y2="450.34mm" stroke="black" stroke-width="1"/>
<line x1="8.5mm" x2="8.5mm" y1="441.84mm" y2="458.84mm" stroke="black" stroke-width="1"/>
<line x1="0mm" x2="17mm" y1="481.9mm" y2="481.9mm" stroke="black" stroke-width="1"/>
<line x1="8.5mm" x2="8.5mm" y1="473.4mm" y2="490.4mm" stroke="black" stroke-width="1"/>
<line x1="0mm" x2="17mm" y1="513.46mm" y2="513.46mm" stroke="black" stroke-width="1"/>
<line x1="8.5mm" x2="8.5mm" y1="504.96mm" y2="521.96mm" stroke="black" stroke-width="1"/>
<line x1="0mm" x2="17mm" y1="545.02mm" y2="545.02mm" stroke="black" stroke-width="1"/>
<line x1="8.5mm" x2="8.5mm" y1="536.52mm" y2="553.52mm" stroke="black" stroke-width="1"/>
<line x1="0mm" x2="17mm" y1="576.58mm" y2="576.58mm" stroke="black" stroke-width="1"/>
<line x1="8.5mm" x2="8.5mm" y1="568.08mm" y2="585.08mm" stroke="black" stroke-width="1"/>
<line x1="0mm" x2="17mm" y1="608.14mm" y2="608.14mm" stroke="black" stroke-width="1"/>
<line x1="8.5mm" x2="8.5mm" y1="599.64mm" y2="616.64mm" stroke="black" stroke-width="1"/>
<line x1="0mm" x2="17mm" y1="639.7mm" y2="639.7mm" stroke="black" stroke-width="1"/>
<line x1="8.5mm" x2="8.5mm" y1="631.2mm" y2="648.2mm" stroke="black" stroke-width="1"/>
<line x1="0mm" x2="17mm" y1="671.26mm" y2="671.26mm" stroke="black" stroke-width="1"/>
<line x1="8.5mm" x2="8.5mm" y1="662.76mm" y2="679.76mm" stroke="black" stroke-width="1"/>
<line x1="0mm" x2="17mm" y1="702.82mm" y2="702.82mm" stroke="black" stroke-width="1"/>
<line x1="8.5mm" x2="8.5mm" y1="694.32mm" y2="711.32mm" stroke="black" stroke-width="1"/>
<line x1="0mm" x2="17mm" y1="734.38mm" y2="734.38mm" stroke="black" stroke-width="1"/>
<line x1="8.5mm" x2="8.5mm" y1="725.88mm" y2="742.88mm" stroke="black" stroke-width="1"/>
<line x1="0mm" x2="17mm" y1="765.94mm" y2="765.94mm" stroke="black" stroke-width="1"/>
<line x1="8.5mm" x2="8.5mm" y1="757.44mm" y2="774.44mm" stroke="black" stroke-width="1"/>
<line x1="0mm" x2="17mm" y1="797.5mm" y2="797.5mm" stroke="black" stroke-width="1"/>
<line x1="8.5mm" x2="8.5mm" y1="789mm" y2="806mm" stroke="black" stroke-width="1"/>
<line x1="31.56mm" x2="48.56mm" y1="8.5mm" y2="8.5mm" stroke="black" stroke-width="1"/>
<line x1="40.06mm" x2="40.06mm" y1="0mm" y2="17mm" stroke="black" stroke-width="1"/>
<line x1="63.12mm" x2="80.12mm" y1="8.5mm" y2="8.5mm" stroke="black" stroke-width="1"/>
<line x1="71.62mm" x2="71.62mm" y1="0mm" y2="17mm" stroke="black" stroke-width="1"/>
<line x1="94.68mm" x2="111.68mm" y1="8.5mm" y2="8.5mm" stroke="black" stroke-width="1"/>
<line x1="103.18mm" x2="103.18mm" y1="0mm" y2="17mm" stroke="black" stroke-width="1"/>
<line x1="126.24mm" x2="143.24mm" y1="8.5mm" y2="8.5mm" stroke="black" stroke-width="1"/>
<line x1="134.74mm" x2="134.74mm" y1="0mm" y2="17mm" stroke="black" stroke-width="1"/>
<line x1="157.8mm" x2="174.8mm" y1="8.5mm" y2="8.5mm" stroke="black" stroke-width="1"/>
<line x1="166.3mm" x2="166.3mm" y1="0mm" y2="17mm" stroke="black" stroke-width="1"/>
<line x1="189.36mm" x2="206.36mm" y1="8.5mm" y2="8.5mm" stroke="black" stroke-width="1"/>
<line x1="197.86mm" x2="197.86mm" y1="0mm" y2="17mm" stroke="black" stroke-width="1"/>
<line x1="220.92mm" x2="237.92mm" y1="8.5mm" y2="8.5mm" stroke="black" stroke-width="1"/>
<line x1="229.42mm" x2="229.42mm" y1="0mm" y2="17mm" stroke="black" stroke-width="1"/>
<line x1="252.48mm" x2="269.48mm" y1="8.5mm" y2="8.5mm" stroke="black" stroke-width="1"/>
<line x1="260.98mm" x2="260.98mm" y1="0mm" y2="17mm" stroke="black" stroke-width="1"/>
<line x1="284.04mm" x2="301.04mm" y1="8.5mm" y2="8.5mm" stroke="black" stroke-width="1"/>
<line x1="292.54mm" x2="292.54mm" y1="0mm" y2="17mm" stroke="black" stroke-width="1"/>
<line x1="315.6mm" x2="332.6mm" y1="8.5mm" y2="8.5mm" stroke="black" stroke-width="1"/>
<line x1="324.1mm" x2="324.1mm" y1="0mm" y2="17mm" stroke="black" stroke-width="1"/>
<line x1="347.16mm" x2="364.16mm" y1="8.5mm" y2="8.5mm" stroke="black" stroke-width="1"/>
<line x1="355.66mm" x2="355.66mm" y1="0mm" y2="17mm" stroke="black" stroke-width="1"/>
<line x1="378.72mm" x2="395.72mm" y1="8.5mm" y2="8.5mm" stroke="black" stroke-width="1"/>
<line x1="387.22mm" x2="387.22mm" y1="0mm" y2="17mm" stroke="black" stroke-width="1"/>
<line x1="410.28mm" x2="427.28mm" y1="8.5mm" y2="8.5mm" stroke="black" stroke-width="1"/>
<line x1="418.78mm" x2="418.78mm" y1="0mm" y2="17mm" stroke="black" stroke-width="1"/>
<line x1="441.84mm" x2="458.84mm" y1="8.5mm" y2="8.5mm" stroke="black" stroke-width="1"/>
<line x1="450.34mm" x2="450.34mm" y1="0mm" y2="17mm" stroke="black" stroke-width="1"/>
<line x1="473.4mm" x2="490.4mm" y1="8.5mm" y2="8.5mm" stroke="black" stroke-width="1"/>
<line x1="481.9mm" x2="481.9mm" y1="0mm" y2="17mm" stroke="black" stroke-width="1"/>
<line x1="504.96mm" x2="521.96mm" y1="8.5mm" y2="8.5mm" stroke="black" stroke-width="1"/>
<line x1="513.46mm" x2="513.46mm" y1="0mm" y2="17mm" stroke="black" stroke-width="1"/>
<line x1="536.52mm" x2="553.52mm" y1="8.5mm" y2="8.5mm" stroke="black" stroke-width="1"/>
<line x1="545.02mm" x2="545.02mm" y1="0mm" y2="17mm" stroke="black" stroke-width="1"/>
<line x1="568.08mm" x2="585.08mm" y1="8.5mm" y2="8.5mm" stroke="black" stroke-width="1"/>
<line x1="576.58mm" x2="576.58mm" y1="0mm" y2="17mm" stroke="black" stroke-width="1"/>
<circle cx="40.06mm" cy="40.06mm" r="6.35mm" fill="black" stoke-width="0"/>
<circle cx="71.62mm" cy="40.06mm" r="8.89mm" fill="black" stoke-width="0"/>
<circle cx="103.18mm" cy="40.06mm" r="6.35mm" fill="black" stoke-width="0"/>
<circle cx="134.74mm" cy="40.06mm" r="6.35mm" fill="black" stoke-width="0"/>
<circle cx="166.3mm" cy="40.06mm" r="8.89mm" fill="black" stoke-width="0"/>
<circle cx="197.86mm" cy="40.06mm" r="8.89mm" fill="black" stoke-width="0"/>
<circle cx="229.42mm" cy="40.06mm" r="6.35mm" fill="black" stoke-width="0"/>
<circle cx="260.98mm" cy="40.06mm" r="6.35mm" fill="black" stoke-width="0"/>
<circle cx="292.54mm" cy="40.06mm" r="8.89mm" fill="black" stoke-width="0"/>
<circle cx="324.1mm" cy="40.06mm" r="8.89mm" fill="black" stoke-width="0"/>
<circle cx="355.66mm" cy="40.06mm" r="8.89mm" fill="black" stoke-width="0"/>
<circle cx="387.22mm" cy="40.06mm" r="6.35mm" fill="black" stoke-width="0"/>
<circle cx="418.78mm" cy="40.06mm" r="8.89mm" fill="black" stoke-width="0"/>
<circle cx="450.34mm" cy="40.06mm" r="6.35mm" fill="black" stoke-width="0"/>
<circle cx="481.9mm" cy="40.06mm" r="8.89mm" fill="black" stoke-width="0"/>
<circle cx="513.46mm" cy="40.06mm" r="6.35mm" fill="black" stoke-width="0"/>
<circle cx="545.02mm" cy="40.06mm" r="8.89mm" fill="black" stoke-width="0"/>
<circle cx="576.58mm" cy="40.06mm" r="6.35mm" fill="black" stoke-width="0"/>
<circle cx="40.06mm" cy="71.62mm" r="6.35mm" fill="black" stoke-width="0"/>
<circle cx="71.62mm" cy="71.62mm" r="8.89mm" fill="black" stoke-width="0"/>
<circle cx="103.18mm" cy="71.62mm" r="6.35mm" fill="black" stoke-width="0"/>
<circle cx="134.74mm" cy="71.62mm" r="8.89mm" fill="black" stoke-width="0"/>
<circle cx="166.3mm" cy="71.62mm" r="8.89mm" fill="black" stoke-width="0"/>
<circle cx="197.86mm" cy="71.62mm" r="6.35mm" fill="black" stoke-width="0"/>
<circle cx="229.42mm" cy="71.62mm" r="6.35mm" fill="black" stoke-width="0"/>
<circle cx="260.98mm" cy="71.62mm" r="6.35mm" fill="black" stoke-width="0"/>
<circle cx="292.54mm" cy="71.62mm" r="8.89mm" fill="black" stoke-width="0"/>
<circle cx="324.1mm" cy="71.62mm" r="8.89mm" fill="black" stoke-width="0"/>
<circle cx="355.66mm" cy="71.62mm" r="6.35mm" fill="black" stoke-width="0"/>
<circle cx="387.22mm" cy="71.62mm" r="8.89mm" fill="black" stoke-width="0"/>
<circle cx="418.78mm" cy="71.62mm" r="8.89mm" fill="black" stoke-width="0"/>
<circle cx="450.34mm" cy="71.62mm" r="6.35mm" fill="black" stoke-width="0"/>
<circle cx="481.9mm" cy="71.62mm" r="6.35mm" fill="black" stoke-width="0"/>
<circle cx="513.46mm" cy="71.62mm" r="6.35mm" fill="black" stoke-width="0"/>
<circle cx="545.02mm" cy="71.62mm" r="8.89mm" fill="black" stoke-width="0"/>
<circle cx="576.58mm" cy="71.62mm" r="8.89mm" fill="black" stoke-width="0"/>
<circle cx="40.06mm" cy="103.18mm" r="8.89mm" fill="black" stoke-width="0"/>
<circle cx="71.62mm" cy="103.18mm" r="8.89mm" fill="black" stoke-width="0"/>
<circle cx="103.18mm" cy="103.18mm" r="6.35mm" fill="black" stoke-width="0"/>
<circle cx="134.74mm" cy="103.18mm" r="6.35mm" fill="black" stoke-width="0"/>
<circle cx="166.3mm" cy="103.18mm" r="6.35mm" fill="black" stoke-width="0"/>
<circle cx="197.86mm" cy="103.18mm" r="6.35mm" fill="black" stoke-width="0"/>
<circle cx="229.42mm" cy="103.18mm" r="6.35mm" fill="black" stoke-width="0"/>
<circle cx="260.98mm" cy="103.18mm" r="6.35mm" fill="black" stoke-width="0"/>
<circle cx="292.54mm" cy="103.18mm" r="8.89mm" fill="black" stoke-width="0"/>
<circle cx="324.1mm" cy="103.18mm" r="8.89mm" fill="black" stoke-width="0"/>
<circle cx="355.66mm" cy="103.18mm" r="6.35mm" fill="black" stoke-width="0"/>
<circle cx="387.22mm" cy="103.18mm" r="8.89mm" fill="black" stoke-width="0"/>
<circle cx="418.78mm" cy="103.18mm" r="8.89mm" fill="black" stoke-width="0"/>
<circle cx="450.34mm" cy="103.18mm" r="8.89mm" fill="black" stoke-width="0"/>
<circle cx="481.9mm" cy="103.18mm" r="8.89mm" fill="black" stoke-width="0"/>
<circle cx="513.46mm" cy="103.18mm" r="6.35mm" fill="black" stoke-width="0"/>
<circle cx="545.02mm" cy="103.18mm" r="6.35mm" fill="black" stoke-width="0"/>
<circle cx="576.58mm" cy="103.18mm" r="6.35mm" fill="black" stoke-width="0"/>
<circle cx="40.06mm" cy="134.74mm" r="6.35mm" fill="black" stoke-width="0"/>
<circle cx="71.62mm" cy="134.74mm" r="8.89mm" fill="black" stoke-width="0"/>
<circle cx="103.18mm" cy="134.74mm" r="6.35mm" fill="black" stoke-width="0"/>
<circle cx="134.74mm" cy="134.74mm" r="8.89mm" fill="black" stoke-width="0"/>
<circle cx="166.3mm" cy="134.74mm" r="8.89mm" fill="black" stoke-width="0"/>
<circle cx="197.86mm" cy="134.74mm" r="8.89mm" fill="black" stoke-width="0"/>
<circle cx="229.42mm" cy="134.74mm" r="6.35mm" fill="black" stoke-width="0"/>
<circle cx="260.98mm" cy="134.74mm" r="8.89mm" fill="black" stoke-width="0"/>
<circle cx="292.54mm" cy="134.74mm" r="6.35mm" fill="black" stoke-width="0"/>
<circle cx="324.1mm" cy="134.74mm" r="6.35mm" fill="black" stoke-width="0"/>
<circle cx="355.66mm" cy="134.74mm" r="8.89mm" fill="black" stoke-width="0"/>
<circle cx="387.22mm" cy="134.74mm" r="8.89mm" fill="black" stoke-width="0"/>
<circle cx="418.78mm" cy="134.74mm" r="6.35mm" fill="black" stoke-width="0"/>
<circle cx="450.34mm" cy="134.74mm" r="6.35mm" fill="black" stoke-width="0"/>
<circle cx="481.9mm" cy="134.74mm" r="8.89mm" fill="black" stoke-width="0"/>
<circle cx="513.46mm" cy="134.74mm" r="8.89mm" fill="black" stoke-width="0"/>
<circle cx="545.02mm" cy="134.74mm" r="6.35mm" fill="black" stoke-width="0"/>
<circle cx="576.58mm" cy="134.74mm" r="6.35mm" fill="black" stoke-width="0"/>
<circle cx="40.06mm" cy="166.3mm" r="6.35mm" fill="black" stoke-width="0"/>
<circle cx="71.62mm" cy="166.3mm" r="8.89mm" fill="black" stoke-width="0"/>
<circle cx="103.18mm" cy="166.3mm" r="6.35mm" fill="black" stoke-width="0"/>
<circle cx="134.74mm" cy="166.3mm" r="6.35mm" fill="black" stoke-width="0"/>
<circle cx="166.3mm" cy="166.3mm" r="6.35mm" fill="black" stoke-width="0"/>
<circle cx="197.86mm" cy="166.3mm" r="8.89mm" fill="black" stoke-width="0"/>
<circle cx="229.42mm" cy="166.3mm" r="6.35mm" fill="black" stoke-width="0"/>
<circle cx="260.98mm" cy="166.3mm" r="8.89mm" fill="black" stoke-width="0"/>
<circle cx="292.54mm" cy="166.3mm" r="8.89mm" fill="black" stoke-width="0"/>
<circle cx="324.1mm" cy="166.3mm" r="6.35mm" fill="black" stoke-width="0"/>
<circle cx="355.66mm" cy="166.3mm" r="8.89mm" fill="black" stoke-width="0"/>
<circle cx="387.22mm" cy="166.3mm" r="8.89mm" fill="black" stoke-width="0"/>
<circle cx="418.78mm" cy="166.3mm" r="6.35mm" fill="black" stoke-width="0"/>
<circle cx="450.34mm" cy="166.3mm" r="8.89mm" fill="black" stoke-width="0"/>
<circle cx="481.9mm" cy="166.3mm" r="8.89mm" fill="black" stoke-width="0"/>
<circle cx="513.46mm" cy="166.3mm" r="8.89mm" fill="black" stoke-width="0"/>
<circle cx="545.02mm" cy="166.3mm" r="8.89mm" fill="black" stoke-width="0"/>
<circle cx="576.58mm" cy="166.3mm" r="6.35mm" fill="black" stoke-width="0"/>
<circle cx="40.06mm" cy="197.86mm" r="8.89mm" fill="black" stoke-width="0"/>
<circle cx="71.62mm" cy="197.86mm" r="6.35mm" fill="black" stoke-width="0"/>
<circle cx="103.18mm" cy="197.86mm" r="6.35mm" fill="black" stoke-width="0"/>
<circle cx="134.74mm" cy="197.86mm" r="6.35mm" fill="black" stoke-width="0"/>
<circle cx="166.3mm" cy="197.86mm" r="8.89mm" fill="black" stoke-width="0"/>
<circle cx="197.86mm" cy="197.86mm" r="6.35mm" fill="black" stoke-width="0"/>
<circle cx="229.42mm" cy="197.86mm" r="8.89mm" fill="black" stoke-width="0"/>
<circle cx="260.98mm" cy="197.86mm" r="6.35mm" fill="black" stoke-width="0"/>
<circle cx="292.54mm" cy="197.86mm" r="6.35mm" fill="black" stoke-width="0"/>
<circle cx="324.1mm" cy="197.86mm" r="6.35mm" fill="black" stoke-width="0"/>
<circle cx="355.66mm" cy="197.86mm" r="8.89mm" fill="black" stoke-width="0"/>
<circle cx="387.22mm" cy="197.86mm" r="8.89mm" fill="black" stoke-width="0"/>
<circle cx="418.78mm" cy="197.86mm" r="8.89mm" fill="black" stoke-width="0"/>
<circle cx="450.34mm" cy="197.86mm" r="6.35mm" fill="black" stoke-width="0"/>
<circle cx="481.9mm" cy="197.86mm" r="6.35mm" fill="black" stoke-width="0"/>
<circle cx="513.46mm" cy="197.86mm" r="6.35mm" fill="black" stoke-width="0"/>
<circle cx="545.02mm" cy="197.86mm" r="6.35mm" fill="black" stoke-width="0"/>
<circle cx="576.58mm" cy="197.86mm" r="6.35mm" fill="black" stoke-width="0"/>
<circle cx="40.06mm" cy="229.42mm" r="8.89mm" fill="black" stoke-width="0"/>
<circle cx="71.62mm" cy="229.42mm" r="6.35mm" fill="black" stoke-width="0"/>
<circle cx="103.18mm" cy="229.42mm" r="8.89mm" fill="black" stoke-width="0"/>
<circle cx="134.74mm" cy="229.42mm" r="8.89mm" fill="black" stoke-width="0"/>
<circle cx="166.3mm" cy="229.42mm" r="6.35mm" fill="black" stoke-width="0"/>
<circle cx="197.86mm" cy="229.42mm" r="6.35mm" fill="black" stoke-width="0"/>
<circle cx="229.42mm" cy="229.42mm" r="8.89mm" fill="black" stoke-width="0"/>
<circle cx="260.98mm" cy="229.42mm" r="8.89mm" fill="black" stoke-width="0"/>
<circle cx="292.54mm" cy="229.42mm" r="6.35mm" fill="black" stoke-width="0"/>
<circle cx="324.1mm" cy="229.42mm" r="8.89mm" fill="black" stoke-width="0"/>
<circle cx="355.66mm" cy="229.42mm" r="8.89mm" fill="black" stoke-width="0"/>
<circle cx="387.22mm" cy="229.42mm" r="8.89mm" fill="black" stoke-width="0"/>
<circle cx="418.78mm" cy="229.42mm" r="6.35mm" fill="black" stoke-width="0"/>
<circle cx="450.34mm" cy="229.42mm" r="6.35mm" fill="black" stoke-width="0"/>
<circle cx="481.9mm" cy="229.42mm" r="8.89mm" fill="black" stoke-width="0"/>
<circle cx="513.46mm" cy="229.42mm" r="6.35mm" fill="black" stoke-width="0"/>
<circle cx="545.02mm" cy="229.42mm" r="6.35mm" fill="black" stoke-width="0"/>
<circle cx="576.58mm" cy="229.42mm" r="6.35mm" fill="black" stoke-width="0"/>
<circle cx="40.06mm" cy="260.98mm" r="6.35mm" fill="black" stoke-width="0"/>
<circle cx="71.62mm" cy="260.98mm" r="6.35mm" fill="black" stoke-width="0"/>
<circle cx="103.18mm" cy="260.98mm" r="6.35mm" fill="black" stoke-width="0"/>
<circle cx="134.74mm" cy="260.98mm" r="6.35mm" fill="black" stoke-width="0"/>
<circle cx="166.3mm" cy="260.98mm" r="8.89mm" fill="black" stoke-width="0"/>
<circle cx="197.86mm" cy="260.98mm" r="6.35mm" fill="black" stoke-width="0"/>
<circle cx="229.42mm" cy="260.98mm" r="8.89mm" fill="black" stoke-width="0"/>
<circle cx="260.98mm" cy="260.98mm" r="6.35mm" fill="black" stoke-width="0"/>
<circle cx="292.54mm" cy="260.98mm" r="6.35mm" fill="black" stoke-width="0"/>
<circle cx="324.1mm" cy="260.98mm" r="6.35mm" fill="black" stoke-width="0"/>
<circle cx="355.66mm" cy="260.98mm" r="6.35mm" fill="black" stoke-width="0"/>
<circle cx="387.22mm" cy="260.98mm" r="6.35mm" fill="black" stoke-width="0"/>
<circle cx="418.78mm" cy="260.98mm" r="6.35mm" fill="black" stoke-width="0"/>
<circle cx="450.34mm" cy="260.98mm" r="6.35mm" fill="black" stoke-width="0"/>
<circle cx="481.9mm" cy="260.98mm" r="8.89mm" fill="black" stoke-width="0"/>
<circle cx="513.46mm" cy="260.98mm" r="6.35mm" fill="black" stoke-width="0"/>
<circle cx="545.02mm" cy="260.98mm" r="8.89mm" fill="black" stoke-width="0"/>
<circle cx="576.58mm" cy="260.98mm" r="6.35mm" fill="black" stoke-width="0"/>
<circle cx="40.06mm" cy="292.54mm" r="8.89mm" fill="black" stoke-width="0"/>
<circle cx="71.62mm" cy="292.54mm" r="6.35mm" fill="black" stoke-width="0"/>
<circle cx="103.18mm" cy="292.54mm" r="6.35mm" fill="black" stoke-width="0"/>
<circle cx="134.74mm" cy="292.54mm" r="8.89mm" fill="black" stoke-width="0"/>
<circle cx="166.3mm" cy="292.54mm" r="8.89mm" fill="black" stoke-width="0"/>
<circle cx="197.86mm" cy="292.54mm" r="8.89mm" fill="black" stoke-width="0"/>
<circle cx="229.42mm" cy="292.54mm" r="8.89mm" fill="black" stoke-width="0"/>
<circle cx="260.98mm" cy="292.54mm" r="6.35mm" fill="black" stoke-width="0"/>
<circle cx="292.54mm" cy="292.54mm" r="6.35mm" fill="black" stoke-width="0"/>
<circle cx="324.1mm" cy="292.54mm" r="8.89mm" fill="black" stoke-width="0"/>
<circle cx="355.66mm" cy="292.54mm" r="6.35mm" fill="black" stoke-width="0"/>
<circle cx="387.22mm" cy="292.54mm" r="8.89mm" fill="black" stoke-width="0"/>
<circle cx="418.78mm" cy="292.54mm" r="6.35mm" fill="black" stoke-width="0"/>
<circle cx="450.34mm" cy="292.54mm" r="6.35mm" fill="black" stoke-width="0"/>
<circle cx="481.9mm" cy="292.54mm" r="8.89mm" fill="black" stoke-width="0"/>
<circle cx="513.46mm" cy="292.54mm" r="6.35mm" fill="black" stoke-width="0"/>
<circle cx="545.02mm" cy="292.54mm" r="8.89mm" fill="black" stoke-width="0"/>
<circle cx="576.58mm" cy="292.54mm" r="8.89mm" fill="black" stoke-width="0"/>
<circle cx="40.06mm" cy="324.1mm" r="8.89mm" fill="black" stoke-width="0"/>
<circle cx="71.62mm" cy="324.1mm" r="8.89mm" fill="black" stoke-width="0"/>
<circle cx="103.18mm" cy="324.1mm" r="8.89mm" fill="black" stoke-width="0"/>
<circle cx="134.74mm" cy="324.1mm" r="6.35mm" fill="black" stoke-width="0"/>
<circle cx="166.3mm" cy="324.1mm" r="6.35mm" fill="black" stoke-width="0"/>
<circle cx="197.86mm" cy="324.1mm" r="6.35mm" fill="black" stoke-width="0"/>
<circle cx="229.42mm" cy="324.1mm" r="8.89mm" fill="black" stoke-width="0"/>
<circle cx="260.98mm" cy="324.1mm" r="8.89mm" fill="black" stoke-width="0"/>
<circle cx="292.54mm" cy="324.1mm" r="6.35mm" fill="black" stoke-width="0"/>
<circle cx="324.1mm" cy="324.1mm" r="6.35mm" fill="black" stoke-width="0"/>
<circle cx="355.66mm" cy="324.1mm" r="6.35mm" fill="black" stoke-width="0"/>
<circle cx="387.22mm" cy="324.1mm" r="6.35mm" fill="black" stoke-width="0"/>
<circle cx="418.78mm" cy="324.1mm" r="8.89mm" fill="black" stoke-width="0"/>
<circle cx="450.34mm" cy="324.1mm" r="6.35mm" fill="black" stoke-width="0"/>
<circle cx="481.9mm" cy="324.1mm" r="8.89mm" fill="black" stoke-width="0"/>
<circle cx="513.46mm" cy="324.1mm" r="6.35mm" fill="black" stoke-width="0"/>
<circle cx="545.02mm" cy="324.1mm" r="8.89mm" fill="black" stoke-width="0"/>
<circle cx="576.58mm" cy="324.1mm" r="6.35mm" fill="black" stoke-width="0"/>
<circle cx="40.06mm" cy="355.66mm" r="8.89mm" fill="black" stoke-width="0"/>
<circle cx="71.62mm" cy="355.66mm" r="8.89mm" fill="black" stoke-width="0"/>
<circle cx="103.18mm" cy="355.66mm" r="6.35mm" fill="black" stoke-width="0"/>
<circle cx="134.74mm" cy="355.66mm" r="8.89mm" fill="black" stoke-width="0"/>
<circle cx="166.3mm" cy="355.66mm" r="8.89mm" fill="black" stoke-width="0"/>
<circle cx="197.86mm" cy="355.66mm" r="8.89mm" fill="black" stoke-width="0"/>
<circle cx="229.42mm" cy="355.66mm" r="8.89mm" fill="black" stoke-width="0"/>
<circle cx="260.98mm" cy="355.66mm" r="6.35mm" fill="black" stoke-width="0"/>
<circle cx="292.54mm" cy="355.66mm" r="8.89mm" fill="black" stoke-width="0"/>
<circle cx="324.1mm" cy="355.66mm" r="6.35mm" fill="black" stoke-width="0"/>
<circle cx="355.66mm" cy="355.66mm" r="8.89mm" fill="black" stoke-width="0"/>
<circle cx="387.22mm" cy="355.66mm" r="6.35mm" fill="black" stoke-width="0"/>
<circle cx="418.78mm" cy="355.66mm" r="8.89mm" fill="black" stoke-width="0"/>
<circle cx="450.34mm" cy="355.66mm" r="6.35mm" fill="black" stoke-width="0"/>
<circle cx="481.9mm" cy="355.66mm" r="8.89mm" fill="black" stoke-width="0"/>
<circle cx="513.46mm" cy="355.66mm" r="8.89mm" fill="black" stoke-width="0"/>
<circle cx="545.02mm" cy="355.66mm" r="8.89mm" fill="black" stoke-width="0"/>
<circle cx="576.58mm" cy="355.66mm" r="8.89mm" fill="black" stoke-width="0"/>
<circle cx="40.06mm" cy="387.22mm" r="6.35mm" fill="black" stoke-width="0"/>
<circle cx="71.62mm" cy="387.22mm" r="6.35mm" fill="black" stoke-width="0"/>
<circle cx="103.18mm" cy="387.22mm" r="8.89mm" fill="black" stoke-width="0"/>
<circle cx="134.74mm" cy="387.22mm" r="8.89mm" fill="black" stoke-width="0"/>
<circle cx="166.3mm" cy="387.22mm" r="8.89mm" fill="black" stoke-width="0"/>
<circle cx="197.86mm" cy="387.22mm" r="8.89mm" fill="black" stoke-width="0"/>
<circle cx="229.42mm" cy="387.22mm" r="6.35mm" fill="black" stoke-width="0"/>
<circle cx="260.98mm" cy="387.22mm" r="8.89mm" fill="black" stoke-width="0"/>
<circle cx="292.54mm" cy="387.22mm" r="8.89mm" fill="black" stoke-width="0"/>
<circle cx="324.1mm" cy="387.22mm" r="6.35mm" fill="black" stoke-width="0"/>
<circle cx="355.66mm" cy="387.22mm" r="8.89mm" fill="black" stoke-width="0"/>
<circle cx="387.22mm" cy="387.22mm" r="6.35mm" fill="black" stoke-width="0"/>
<circle cx="418.78mm" cy="387.22mm" r="6.35mm" fill="black" stoke-width="0"/>
<circle cx="450.34mm" cy="387.22mm" r="8.89mm" fill="black" stoke-width="0"/>
<circle cx="481.9mm" cy="387.22mm" r="8.89mm" fill="black" stoke-width="0"/>
<circle cx="513.46mm" cy="387.22mm" r="6.35mm" fill="black" stoke-width="0"/>
<circle cx="545.02mm" cy="387.22mm" r="8.89mm" fill="black" stoke-width="0"/>
<circle cx="576.58mm" cy="387.22mm" r="6.35mm" fill="black" stoke-width="0"/>
<circle cx="40.06mm" cy="418.78mm" r="6.35mm" fill="black" stoke-width="0"/>
<circle cx="71.62mm" cy="418.78mm" r="6.35mm" fill="black" stoke-width="0"/>
<circle cx="103.18mm" cy="418.78mm" r="8.89mm" fill="black" stoke-width="0"/>
<circle cx="134.74mm" cy="418.78mm" r="8.89mm" fill="black" stoke-width="0"/>
<circle cx="166.3mm" cy="418.78mm" r="6.35mm" fill="black" stoke-width="0"/>
<circle cx="197.86mm" cy="418.78mm" r="8.89mm" fill="black" stoke-width="0"/>
<circle cx="229.42mm" cy="418.78mm" r="6.35mm" fill="black" stoke-width="0"/>
<circle cx="260.98mm" cy="418.78mm" r="8.89mm" fill="black" stoke-width="0"/>
<circle cx="292.54mm" cy="418.78mm" r="6.35mm" fill="black" stoke-width="0"/>
<circle cx="324.1mm" cy="418.78mm" r="8.89mm" fill="black" stoke-width="0"/>
<circle cx="355.66mm" cy="418.78mm" r="8.89mm" fill="black" stoke-width="0"/>
<circle cx="387.22mm" cy="418.78mm" r="6.35mm" fill="black" stoke-width="0"/>
<circle cx="418.78mm" cy="418.78mm" r="6.35mm" fill="black" stoke-width="0"/>
<circle cx="450.34mm" cy="418.78mm" r="6.35mm" fill="black" stoke-width="0"/>
<circle cx="481.9mm" cy="418.78mm" r="6.35mm" fill="black" stoke-width="0"/>
<circle cx="513.46mm" cy="418.78mm" r="8.89mm" fill="black" stoke-width="0"/>
<circle cx="545.02mm" cy="418.78mm" r="8.89mm" fill="black" stoke-width="0"/>
<circle cx="576.58mm" cy="418.78mm" r="6.35mm" fill="black" stoke-width="0"/>
<circle cx="40.06mm" cy="450.34mm" r="8.89mm" fill="black" stoke-width="0"/>
<circle cx="71.62mm" cy="450.34mm" r="6.35mm" fill="black" stoke-width="0"/>
<circle cx="103.18mm" cy="450.34mm" r="6.35mm" fill="black" stoke-width="0"/>
<circle cx="134.74mm" cy="450.34mm" r="6.35mm" fill="black" stoke-width="0"/>
<circle cx="166.3mm" cy="450.34mm" r="8.89mm" fill="black" stoke-width="0"/>
<circle cx="197.86mm" cy="450.34mm" r="6.35mm" fill="black" stoke-width="0"/>
<circle cx="229.42mm" cy="450.34mm" r="6.35mm" fill="black" stoke-width="0"/>
<circle cx="260.98mm" cy="450.34mm" r="8.89mm" fill="black" stoke-width="0"/>
<circle cx="292.54mm" cy="450.34mm" r="8.89mm" fill="black" stoke-width="0"/>
<circle cx="324.1mm" cy="450.34mm" r="8.89mm" fill="black" stoke-width="0"/>
<circle cx="355.66mm" cy="450.34mm" r="8.89mm" fill="black" stoke-width="0"/>
<circle cx="387.22mm" cy="450.34mm" r="6.35mm" fill="black" stoke-width="0"/>
<circle cx="418.78mm" cy="450.34mm" r="8.89mm" fill="black" stoke-width="0"/>
<circle cx="450.34mm" cy="450.34mm" r="8.89mm" fill="black" stoke-width="0"/>
<circle cx="481.9mm" cy="450.34mm" r="6.35mm" fill="black" stoke-width="0"/>
<circle cx="513.46mm" cy="450.34mm" r="8.89mm" fill="black" stoke-width="0"/>
<circle cx="545.02mm" cy="450.34mm" r="6.35mm" fill="black" stoke-width="0"/>
<circle cx="576.58mm" cy="450.34mm" r="6.35mm" fill="black" stoke-width="0"/>
<circle cx="40.06mm" cy="481.9mm" r="6.35mm" fill="black" stoke-width="0"/>
<circle cx="71.62mm" cy="481.9mm" r="6.35mm" fill="black" stoke-width="0"/>
<circle cx="103.18mm" cy="481.9mm" r="8.89mm" fill="black" stoke-width="0"/>
<circle cx="134.74mm" cy="481.9mm" r="6.35mm" fill="black" stoke-width="0"/>
<circle cx="166.3mm" cy="481.9mm" r="8.89mm" fill="black" stoke-width="0"/>
<circle cx="197.86mm" cy="481.9mm" r="8.89mm" fill="black" stoke-width="0"/>
<circle cx="229.42mm" cy="481.9mm" r="6.35mm" fill="black" stoke-width="0"/>
<circle cx="260.98mm" cy="481.9mm" r="6.35mm" fill="black" stoke-width="0"/>
<circle cx="292.54mm" cy="481.9mm" r="8.89mm" fill="black" stoke-width="0"/>
<circle cx="324.1mm" cy="481.9mm" r="8.89mm" fill="black" stoke-width="0"/>
<circle cx="355.66mm" cy="481.9mm" r="6.35mm" fill="black" stoke-width="0"/>
<circle cx="387.22mm" cy="481.9mm" r="6.35mm" fill="black" stoke-width="0"/>
<circle cx="418.78mm" cy="481.9mm" r="6.35mm" fill="black" stoke-width="0"/>
<circle cx="450.34mm" cy="481.9mm" r="8.89mm" fill="black" stoke-width="0"/>
<circle cx="481.9mm" cy="481.9mm" r="8.89mm" fill="black" stoke-width="0"/>
<circle cx="513.46mm" cy="481.9mm" r="8.89mm" fill="black" stoke-width="0"/>
<circle cx="545.02mm" cy="481.9mm" r="8.89mm" fill="black" stoke-width="0"/>
<circle cx="576.58mm" cy="481.9mm" r="6.35mm" fill="black" stoke-width="0"/>
<circle cx="40.06mm" cy="513.46mm" r="6.35mm" fill="black" stoke-width="0"/>
<circle cx="71.62mm" cy="513.46mm" r="8.89mm" fill="black" stoke-width="0"/>
<circle cx="103.18mm" cy="513.46mm" r="8.89mm" fill="black" stoke-width="0"/>
<circle cx="134.74mm" cy="513.46mm" r="6.35mm" fill="black" stoke-width="0"/>
<circle cx="166.3mm" cy="513.46mm" r="8.89mm" fill="black" stoke-width="0"/>
<circle cx="197.86mm" cy="513.46mm" r="8.89mm" fill="black" stoke-width="0"/>
<circle cx="229.42mm" cy="513.46mm" r="6.35mm" fill="black" stoke-width="0"/>
<circle cx="260.98mm" cy="513.46mm" r="6.35mm" fill="black" stoke-width="0"/>
<circle cx="292.54mm" cy="513.46mm" r="6.35mm" fill="black" stoke-width="0"/>
<circle cx="324.1mm" cy="513.46mm" r="6.35mm" fill="black" stoke-width="0"/>
<circle cx="355.66mm" cy="513.46mm" r="6.35mm" fill="black" stoke-width="0"/>
<circle cx="387.22mm" cy="513.46mm" r="6.35mm" fill="black" stoke-width="0"/>
<circle cx="418.78mm" cy="513.46mm" r="6.35mm" fill="black" stoke-width="0"/>
<circle cx="450.34mm" cy="513.46mm" r="8.89mm" fill="black" stoke-width="0"/>
<circle cx="481.9mm" cy="513.46mm" r="8.89mm" fill="black" stoke-width="0"/>
<circle cx="513.46mm" cy="513.46mm" r="6.35mm" fill="black" stoke-width="0"/>
<circle cx="545.02mm" cy="513.46mm" r="6.35mm" fill="black" stoke-width="0"/>
<circle cx="576.58mm" cy="513.46mm" r="8.89mm" fill="black" stoke-width="0"/>
<circle cx="40.06mm" cy="545.02mm" r="6.35mm" fill="black" stoke-width="0"/>
<circle cx="71.62mm" cy="545.02mm" r="6.35mm" fill="black" stoke-width="0"/>
<circle cx="103.18mm" cy="545.02mm" r="8.89mm" fill="black" stoke-width="0"/>
<circle cx="134.74mm" cy="545.02mm" r="8.89mm" fill="black" stoke-width="0"/>
<circle cx="166.3mm" cy="545.02mm" r="6.35mm" fill="black" stoke-width="0"/>
<circle cx="197.86mm" cy="545.02mm" r="8.89mm" fill="black" stoke-width="0"/>
<circle cx="229.42mm" cy="545.02mm" r="6.35mm" fill="black" stoke-width="0"/>
<circle cx="260.98mm" cy="545.02mm" r="6.35mm" fill="black" stoke-width="0"/>
<circle cx="292.54mm" cy="545.02mm" r="6.35mm" fill="black" stoke-width="0"/>
<circle cx="324.1mm" cy="545.02mm" r="6.35mm" fill="black" stoke-width="0"/>
<circle cx="355.66mm" cy="545.02mm" r="6.35mm" fill="black" stoke-width="0"/>
<circle cx="387.22mm" cy="545.02mm" r="8.89mm" fill="black" stoke-width="0"/>
<circle cx="418.78mm" cy="545.02mm" r="6.35mm" fill="black" stoke-width="0"/>
<circle cx="450.34mm" cy="545.02mm" r="8.89mm" fill="black" stoke-width="0"/>
<circle cx="481.9mm" cy="545.02mm" r="6.35mm" fill="black" stoke-width="0"/>
<circle cx="513.46mm" cy="545.02mm" r="6.35mm" fill="black" stoke-width="0"/>
<circle cx="545.02mm" cy="545.02mm" r="8.89mm" fill="black" stoke-width="0"/>
<circle cx="576.58mm" cy="545.02mm" r="6.35mm" fill="black" stoke-width="0"/>
<circle cx="40.06mm" cy="576.58mm" r="8.89mm" fill="black" stoke-width="0"/>
<circle cx="71.62mm" cy="576.58mm" r="8.89mm" fill="black" stoke-width="0"/>
<circle cx="103.18mm" cy="576.58mm" r="6.35mm" fill="black" stoke-width="0"/>
<circle cx="134.74mm" cy="576.58mm" r="8.89mm" fill="black" stoke-width="0"/>
<circle cx="166.3mm" cy="576.58mm" r="8.89mm" fill="black" stoke-width="0"/>
<circle cx="197.86mm" cy="576.58mm" r="6.35mm" fill="black" stoke-width="0"/>
<circle cx="229.42mm" cy="576.58mm" r="6.35mm" fill="black" stoke-width="0"/>
<circle cx="260.98mm" cy="576.58mm" r="6.35mm" fill="black" stoke-width="0"/>
<circle cx="292.54mm" cy="576.58mm" r="8.89mm" fill="black" stoke-width="0"/>
<circle cx="324.1mm" cy="576.58mm" r="8.89mm" fill="black" stoke-width="0"/>
<circle cx="355.66mm" cy="576.58mm" r="6.35mm" fill="black" stoke-width="0"/>
<circle cx="387.22mm" cy="576.58mm" r="8.89mm" fill="black" stoke-width="0"/>
<circle cx="418.78mm" cy="576.58mm" r="8.89mm" fill="black" stoke-width="0"/>
<circle cx="450.34mm" cy="576.58mm" r="6.35mm" fill="black" stoke-width="0"/>
<circle cx="481.9mm" cy="576.58mm" r="6.35mm" fill="black" stoke-width="0"/>
<circle cx="513.46mm" cy="576.58mm" r="8.89mm" fill="black" stoke-width="0"/>
<circle cx="545.02mm" cy="576.58mm" r="8.89mm" fill="black" stoke-width="0"/>
<circle cx="576.58mm" cy="576.58mm" r="6.35mm" fill="black" stoke-width="0"/>
<circle cx="40.06mm" cy="608.14mm" r="6.35mm" fill="black" stoke-width="0"/>
<circle cx="71.62mm" cy="608.14mm" r="8.89mm" fill="black" stoke-width="0"/>
<circle cx="103.18mm" cy="608.14mm" r="6.35mm" fill="black" stoke-width="0"/>
<circle cx="134.74mm" cy="608.14mm" r="6.35mm" fill="black" stoke-width="0"/>
<circle cx="166.3mm" cy="608.14mm" r="8.89mm" fill="black" stoke-width="0"/>
<circle cx="197.86mm" cy="608.14mm" r="8.89mm" fill="black" stoke-width="0"/>
<circle cx="229.42mm" cy="608.14mm" r="8.89mm" fill="black" stoke-width="0"/>
<circle cx="260.98mm" cy="608.14mm" r="8.89mm" fill="black" stoke-width="0"/>
<circle cx="292.54mm" cy="608.14mm" r="8.89mm" fill="black" stoke-width="0"/>
<circle cx="324.1mm" cy="608.14mm" r="6.35mm" fill="black" stoke-width="0"/>
<circle cx="355.66mm" cy="608.14mm" r="6.35mm" fill="black" stoke-width="0"/>
<circle cx="387.22mm" cy="608.14mm" r="6.35mm" fill="black" stoke-width="0"/>
<circle cx="418.78mm" cy="608.14mm" r="8.89mm" fill="black" stoke-width="0"/>
<circle cx="450.34mm" cy="608.14mm" r="8.89mm" fill="black" stoke-width="0"/>
<circle cx="481.9mm" cy="608.14mm" r="8.89mm" fill="black" stoke-width="0"/>
<circle cx="513.46mm" cy="608.14mm" r="8.89mm" fill="black" stoke-width="0"/>
<circle cx="545.02mm" cy="608.14mm" r="8.89mm" fill="black" stoke-width="0"/>
<circle cx="576.58mm" cy="608.14mm" r="8.89mm" fill="black" stoke-width="0"/>
<circle cx="40.06mm" cy="639.7mm" r="6.35mm" fill="black" stoke-width="0"/>
<circle cx="71.62mm" cy="639.7mm" r="8.89mm" fill="black" stoke-width="0"/>
<circle cx="103.18mm" cy="639.7mm" r="6.35mm" fill="black" stoke-width="0"/>
<circle cx="134.74mm" cy="639.7mm" r="8.89mm" fill="black" stoke-width="0"/>
<circle cx="166.3mm" cy="639.7mm" r="8.89mm" fill="black" stoke-width="0"/>
<circle cx="197.86mm" cy="639.7mm" r="8.89mm" fill="black" stoke-width="0"/>
<circle cx="229.42mm" cy="639.7mm" r="6.35mm" fill="black" stoke-width="0"/>
<circle cx="260.98mm" cy="639.7mm" r="6.35mm" fill="black" stoke-width="0"/>
<circle cx="292.54mm" cy="639.7mm" r="6.35mm" fill="black" stoke-width="0"/>
<circle cx="324.1mm" cy="639.7mm" r="6.35mm" fill="black" stoke-width="0"/>
<circle cx="355.66mm" cy="639.7mm" r="8.89mm" fill="black" stoke-width="0"/>
<circle cx="387.22mm" cy="639.7mm" r="8.89mm" fill="black" stoke-width="0"/>
<circle cx="418.78mm" cy="639.7mm" r="8.89mm" fill="black" stoke-width="0"/>
<circle cx="450.34mm" cy="639.7mm" r="8.89mm" fill="black" stoke-width="0"/>
<circle cx="481.9mm" cy="639.7mm" r="8.89mm" fill="black" stoke-width="0"/>
<circle cx="513.46mm" cy="639.7mm" r="6.35mm" fill="black" stoke-width="0"/>
<circle cx="545.02mm" cy="639.7mm" r="8.89mm" fill="black" stoke-width="0"/>
<circle cx="576.58mm" cy="639.7mm" r="6.35mm" fill="black" stoke-width="0"/>
<circle cx="40.06mm" cy="671.26mm" r="8.89mm" fill="black" stoke-width="0"/>
<circle cx="71.62mm" cy="671.26mm" r="6.35mm" fill="black" stoke-width="0"/>
<circle cx="103.18mm" cy="671.26mm" r="6.35mm" fill="black" stoke-width="0"/>
<circle cx="134.74mm" cy="671.26mm" r="6.35mm" fill="black" stoke-width="0"/>
<circle cx="166.3mm" cy="671.26mm" r="8.89mm" fill="black" stoke-width="0"/>
<circle cx="197.86mm" cy="671.26mm" r="8.89mm" fill="black" stoke-width="0"/>
<circle cx="229.42mm" cy="671.26mm" r="6.35mm" fill="black" stoke-width="0"/>
<circle cx="260.98mm" cy="671.26mm" r="6.35mm" fill="black" stoke-width="0"/>
<circle cx="292.54mm" cy="671.26mm" r="8.89mm" fill="black" stoke-width="0"/>
<circle cx="324.1mm" cy="671.26mm" r="8.89mm" fill="black" stoke-width="0"/>
<circle cx="355.66mm" cy="671.26mm" r="6.35mm" fill="black" stoke-width="0"/>
<circle cx="387.22mm" cy="671.26mm" r="8.89mm" fill="black" stoke-width="0"/>
<circle cx="418.78mm" cy="671.26mm" r="8.89mm" fill="black" stoke-width="0"/>
<circle cx="450.34mm" cy="671.26mm" r="8.89mm" fill="black" stoke-width="0"/>
<circle cx="481.9mm" cy="671.26mm" r="8.89mm" fill="black" stoke-width="0"/>
<circle cx="513.46mm" cy="671.26mm" r="8.89mm" fill="black" stoke-width="0"/>
<circle cx="545.02mm" cy="671.26mm" r="8.89mm" fill="black" stoke-width="0"/>
<circle cx="576.58mm" cy="671.26mm" r="8.89mm" fill="black" stoke-width="0"/>
<circle cx="40.06mm" cy="702.82mm" r="6.35mm" fill="black" stoke-width="0"/>
<circle cx="71.62mm" cy="702.82mm" r="8.89mm" fill="black" stoke-width="0"/>
<circle cx="103.18mm" cy="702.82mm" r="6.35mm" fill="black" stoke-width="0"/>
<circle cx="134.74mm" cy="702.82mm" r="8.89mm" fill="black" stoke-width="0"/>
<circle cx="166.3mm" cy="702.82mm" r="6.35mm" fill="black" stoke-width="0"/>
<circle cx="197.86mm" cy="702.82mm" r="8.89mm" fill="black" stoke-width="0"/>
<circle cx="229.42mm" cy="702.82mm" r="8.89mm" fill="black" stoke-width="0"/>
<circle cx="260.98mm" cy="702.82mm" r="8.89mm" fill="black" stoke-width="0"/>
<circle cx="292.54mm" cy="702.82mm" r="6.35mm" fill="black" stoke-width="0"/>
<circle cx="324.1mm" cy="702.82mm" r="6.35mm" fill="black" stoke-width="0"/>
<circle cx="355.66mm" cy="702.82mm" r="8.89mm" fill="black" stoke-width="0"/>
<circle cx="387.22mm" cy="702.82mm" r="6.35mm" fill="black" stoke-width="0"/>
<circle cx="418.78mm" cy="702.82mm" r="8.89mm" fill="black" stoke-width="0"/>
<circle cx="450.34mm" cy="702.82mm" r="6.35mm" fill="black" stoke-width="0"/>
<circle cx="481.9mm" cy="702.82mm" r="6.35mm" fill="black" stoke-width="0"/>
<circle cx="513.46mm" cy="702.82mm" r="6.35mm" fill="black" stoke-width="0"/>
<circle cx="545.02mm" cy="702.82mm" r="6.35mm" fill="black" stoke-width="0"/>
<circle cx="576.58mm" cy="702.82mm" r="8.89mm" fill="black" stoke-width="0"/>
<circle cx="40.06mm" cy="734.38mm" r="6.35mm" fill="black" stoke-width="0"/>
<circle cx="71.62mm" cy="734.38mm" r="8.89mm" fill="black" stoke-width="0"/>
<circle cx="103.18mm" cy="734.38mm" r="6.35mm" fill="black" stoke-width="0"/>
<circle cx="134.74mm" cy="734.38mm" r="6.35mm" fill="black" stoke-width="0"/>
<circle cx="166.3mm" cy="734.38mm" r="8.89mm" fill="black" stoke-width="0"/>
<circle cx="197.86mm" cy="734.38mm" r="8.89mm" fill="black" stoke-width="0"/>
<circle cx="229.42mm" cy="734.38mm" r="8.89mm" fill="black" stoke-width="0"/>
<circle cx="260.98mm" cy="734.38mm" r="6.35mm" fill="black" stoke-width="0"/>
<circle cx="292.54mm" cy="734.38mm" r="6.35mm" fill="black" stoke-width="0"/>
<circle cx="324.1mm" cy="734.38mm" r="6.35mm" fill="black" stoke-width="0"/>
<circle cx="355.66mm" cy="734.38mm" r="8.89mm" fill="black" stoke-width="0"/>
<circle cx="387.22mm" cy="734.38mm" r="8.89mm" fill="black" stoke-width="0"/>
<circle cx="418.78mm" cy="734.38mm" r="6.35mm" fill="black" stoke-width="0"/>
<circle cx="450.34mm" cy="734.38mm" r="6.35mm" fill="black" stoke-width="0"/>
<circle cx="481.9mm" cy="734.38mm" r="6.35mm" fill="black" stoke-width="0"/>
<circle cx="513.46mm" cy="734.38mm" r="8.89mm" fill="black" stoke-width="0"/>
<circle cx="545.02mm" cy="734.38mm" r="6.35mm" fill="black" stoke-width="0"/>
<circle cx="576.58mm" cy="734.38mm" r="8.89mm" fill="black" stoke-width="0"/>
<circle cx="40.06mm" cy="765.94mm" r="8.89mm" fill="black" stoke-width="0"/>
<circle cx="71.62mm" cy="765.94mm" r="8.89mm" fill="black" stoke-width="0"/>
<circle cx="103.18mm" cy="765.94mm" r="6.35mm" fill="black" stoke-width="0"/>
<circle cx="134.74mm" cy="765.94mm" r="6.35mm" fill="black" stoke-width="0"/>
<circle cx="166.3mm" cy="765.94mm" r="8.89mm" fill="black" stoke-width="0"/>
<circle cx="197.86mm" cy="765.94mm" r="8.89mm" fill="black" stoke-width="0"/>
<circle cx="229.42mm" cy="765.94mm" r="6.35mm" fill="black" stoke-width="0"/>
<circle cx="260.98mm" cy="765.94mm" r="6.35mm" fill="black" stoke-width="0"/>
<circle cx="292.54mm" cy="765.94mm" r="6.35mm" fill="black" stoke-width="0"/>
<circle cx="324.1mm" cy="765.94mm" r="8.89mm" fill="black" stoke-width="0"/>
<circle cx="355.66mm" cy="765.94mm" r="8.89mm" fill="black" stoke-width="0"/>
<circle cx="387.22mm" cy="765.94mm" r="8.89mm" fill="black" stoke-width="0"/>
<circle cx="418.78mm" cy="765.94mm" r="6.35mm" fill="black" stoke-width="0"/>
<circle cx="450.34mm" cy="765.94mm" r="8.89mm" fill="black" stoke-width="0"/>
<circle cx="481.9mm" cy="765.94mm" r="6.35mm" fill="black" stoke-width="0"/>
<circle cx="513.46mm" cy="765.94mm" r="8.89mm" fill="black" stoke-width="0"/>
<circle cx="545.02mm" cy="765.94mm" r="6.35mm" fill="black" stoke-width="0"/>
<circle cx="576.58mm" cy="765.94mm" r="8.89mm" fill="black" stoke-width="0"/>
<circle cx="40.06mm" cy="797.5mm" r="8.89mm" fill="black" stoke-width="0"/>
<circle cx="71.62mm" cy="797.5mm" r="6.35mm" fill="black" stoke-width="0"/>
<circle cx="103.18mm" cy="797.5mm" r="8.89mm" fill="black" stoke-width="0"/>
<circle cx="134.74mm" cy="797.5mm" r="6.35mm" fill="black" stoke-width="0"/>
<circle cx="166.3mm" cy="797.5mm" r="6.35mm" fill="black" stoke-width="0"/>
<circle cx="197.86mm" cy="797.5mm" r="8.89mm" fill="black" stoke-width="0"/>
<circle cx="229.42mm" cy="797.5mm" r="6.35mm" fill="black" stoke-width="0"/>
<circle cx="260.98mm" cy="797.5mm" r="6.35mm" fill="black" stoke-width="0"/>
<circle cx="292.54mm" cy="797.5mm" r="8.89mm" fill="black" stoke-width="0"/>
<circle cx="324.1mm" cy="797.5mm" r="8.89mm" fill="black" stoke-width="0"/>
<circle cx="355.66mm" cy="797.5mm" r="8.89mm" fill="black" stoke-width="0"/>
<circle cx="387.22mm" cy="797.5mm" r="6.35mm" fill="black" stoke-width="0"/>
<circle cx="418.78mm" cy="797.5mm" r="6.35mm" fill="black" stoke-width="0"/>
<circle cx="450.34mm" cy="797.5mm" r="6.35mm" fill="black" stoke-width="0"/>
<circle cx="481.9mm" cy="797.5mm" r="8.89mm" fill="black" stoke-width="0"/>
<circle cx="513.46mm" cy="797.5mm" r="8.89mm" fill="black" stoke-width="0"/>
<circle cx="545.02mm" cy="797.5mm" r="8.89mm" fill="black" stoke-width="0"/>
<circle cx="576.58mm" cy="797.5mm" r="8.89mm" fill="black" stoke-width="0"/>
<circle cx="8.5mm" cy="8.5mm" fill="none" r="8.5mm" stroke="black" stroke-width="1" />
<line x1="0mm" x2="17mm" y1="8.5mm" y2="8.5mm" stroke="black" stroke-width="1"/>
<line x1="8.5mm" x2="8.5mm" y1="0mm" y2="17mm" stroke="black" stroke-width="1"/>
<circle cx="576.58mm" cy="8.5mm" fill="none" r="8.5mm" stroke="black" stroke-width="1" />
<line x1="568.08mm" x2="585.08mm" y1="8.5mm" y2="8.5mm" stroke="black" stroke-width="1"/>
<line x1="576.58mm" x2="576.58mm" y1="0mm" y2="17mm" stroke="black" stroke-width="1"/>
<circle cx="576.58mm" cy="829.06mm" fill="none" r="8.5mm" stroke="black" stroke-width="1" />
<line x1="568.08mm" x2="585.08mm" y1="829.06mm" y2="829.06mm" stroke="black" stroke-width="1"/>
<line x1="576.58mm" x2="576.58mm" y1="820.56mm" y2="837.56mm" stroke="black" stroke-width="1"/>
<circle cx="8.5mm" cy="829.06mm" fill="none" r="8.5mm" stroke="black" stroke-width="1" />
<line x1="0mm" x2="17mm" y1="829.06mm" y2="829.06mm" stroke="black" stroke-width="1"/>
<line x1="8.5mm" x2="8.5mm" y1="820.56mm" y2="837.56mm" stroke="black" stroke-width="1"/>
<circle cx="8.5mm" cy="418.78mm" fill="none" r="8.5mm" stroke="black" stroke-width="1" />
<line x1="0mm" x2="17mm" y1="418.78mm" y2="418.78mm" stroke="black" stroke-width="1"/>
<line x1="8.5mm" x2="8.5mm" y1="410.28mm" y2="427.28mm" stroke="black" stroke-width="1"/>
</svg>
