<?xml version="1.0" standalone="no"?>
<!DOCTYPE svg PUBLIC "-//W3C//DTD SVG 1.1//EN" "http://www.w3.org/Graphics/SVG/1.1/DTD/svg11.dtd">
<svg width="608.08mm" height="860.56mm" transform="translate(11.11mm,11.11mm)">
<line x1="0mm" x2="17.78mm" y1="40.45mm" y2="40.45mm" stroke="black" stroke-width="1"/>
<line x1="8.89mm" x2="8.89mm" y1="31.56mm" y2="49.34mm" stroke="black" stroke-width="1"/>
<line x1="0mm" x2="17.78mm" y1="72.01mm" y2="72.01mm" stroke="black" stroke-width="1"/>
<line x1="8.89mm" x2="8.89mm" y1="63.12mm" y2="80.9mm" stroke="black" stroke-width="1"/>
<line x1="0mm" x2="17.78mm" y1="103.57mm" y2="103.57mm" stroke="black" stroke-width="1"/>
<line x1="8.89mm" x2="8.89mm" y1="94.68mm" y2="112.46mm" stroke="black" stroke-width="1"/>
<line x1="0mm" x2="17.78mm" y1="135.13mm" y2="135.13mm" stroke="black" stroke-width="1"/>
<line x1="8.89mm" x2="8.89mm" y1="126.24mm" y2="144.02mm" stroke="black" stroke-width="1"/>
<line x1="0mm" x2="17.78mm" y1="166.69mm" y2="166.69mm" stroke="black" stroke-width="1"/>
<line x1="8.89mm" x2="8.89mm" y1="157.8mm" y2="175.58mm" stroke="black" stroke-width="1"/>
<line x1="0mm" x2="17.78mm" y1="198.25mm" y2="198.25mm" stroke="black" stroke-width="1"/>
<line x1="8.89mm" x2="8.89mm" y1="189.36mm" y2="207.14mm" stroke="black" stroke-width="1"/>
<line x1="0mm" x2="17.78mm" y1="229.81mm" y2="229.81mm" stroke="black" stroke-width="1"/>
<line x1="8.89mm" x2="8.89mm" y1="220.92mm" y2="238.7mm" stroke="black" stroke-width="1"/>
<line x1="0mm" x2="17.78mm" y1="261.37mm" y2="261.37mm" stroke="black" stroke-width="1"/>
<line x1="8.89mm" x2="8.89mm" y1="252.48mm" y2="270.26mm" stroke="black" stroke-width="1"/>
<line x1="0mm" x2="17.78mm" y1="292.93mm" y2="292.93mm" stroke="black" stroke-width="1"/>
<line x1="8.89mm" x2="8.89mm" y1="284.04mm" y2="301.82mm" stroke="black" stroke-width="1"/>
<line x1="0mm" x2="17.78mm" y1="324.49mm" y2="324.49mm" stroke="black" stroke-width="1"/>
<line x1="8.89mm" x2="8.89mm" y1="315.6mm" y2="333.38mm" stroke="black" stroke-width="1"/>
<line x1="0mm" x2="17.78mm" y1="356.05mm" y2="356.05mm" stroke="black" stroke-width="1"/>
<line x1="8.89mm" x2="8.89mm" y1="347.16mm" y2="364.94mm" stroke="black" stroke-width="1"/>
<line x1="0mm" x2="17.78mm" y1="387.61mm" y2="387.61mm" stroke="black" stroke-width="1"/>
<line x1="8.89mm" x2="8.89mm" y1="378.72mm" y2="396.5mm" stroke="black" stroke-width="1"/>
<line x1="0mm" x2="17.78mm" y1="419.17mm" y2="419.17mm" stroke="black" stroke-width="1"/>
<line x1="8.89mm" x2="8.89mm" y1="410.28mm" y2="428.06mm" stroke="black" stroke-width="1"/>
<line x1="0mm" x2="17.78mm" y1="450.73mm" y2="450.73mm" stroke="black" stroke-width="1"/>
<line x1="8.89mm" x2="8.89mm" y1="441.84mm" y2="459.62mm" stroke="black" stroke-width="1"/>
<line x1="0mm" x2="17.78mm" y1="482.29mm" y2="482.29mm" stroke="black" stroke-width="1"/>
<line x1="8.89mm" x2="8.89mm" y1="473.4mm" y2="491.18mm" stroke="black" stroke-width="1"/>
<line x1="0mm" x2="17.78mm" y1="513.85mm" y2="513.85mm" stroke="black" stroke-width="1"/>
<line x1="8.89mm" x2="8.89mm" y1="504.96mm" y2="522.74mm" stroke="black" stroke-width="1"/>
<line x1="0mm" x2="17.78mm" y1="545.41mm" y2="545.41mm" stroke="black" stroke-width="1"/>
<line x1="8.89mm" x2="8.89mm" y1="536.52mm" y2="554.3mm" stroke="black" stroke-width="1"/>
<line x1="0mm" x2="17.78mm" y1="576.97mm" y2="576.97mm" stroke="black" stroke-width="1"/>
<line x1="8.89mm" x2="8.89mm" y1="568.08mm" y2="585.86mm" stroke="black" stroke-width="1"/>
<line x1="0mm" x2="17.78mm" y1="608.53mm" y2="608.53mm" stroke="black" stroke-width="1"/>
<line x1="8.89mm" x2="8.89mm" y1="599.64mm" y2="617.42mm" stroke="black" stroke-width="1"/>
<line x1="0mm" x2="17.78mm" y1="640.09mm" y2="640.09mm" stroke="black" stroke-width="1"/>
<line x1="8.89mm" x2="8.89mm" y1="631.2mm" y2="648.98mm" stroke="black" stroke-width="1"/>
<line x1="0mm" x2="17.78mm" y1="671.65mm" y2="671.65mm" stroke="black" stroke-width="1"/>
<line x1="8.89mm" x2="8.89mm" y1="662.76mm" y2="680.54mm" stroke="black" stroke-width="1"/>
<line x1="0mm" x2="17.78mm" y1="703.21mm" y2="703.21mm" stroke="black" stroke-width="1"/>
<line x1="8.89mm" x2="8.89mm" y1="694.32mm" y2="712.1mm" stroke="black" stroke-width="1"/>
<line x1="0mm" x2="17.78mm" y1="734.77mm" y2="734.77mm" stroke="black" stroke-width="1"/>
<line x1="8.89mm" x2="8.89mm" y1="725.88mm" y2="743.66mm" stroke="black" stroke-width="1"/>
<line x1="0mm" x2="17.78mm" y1="766.33mm" y2="766.33mm" stroke="black" stroke-width="1"/>
<line x1="8.89mm" x2="8.89mm" y1="757.44mm" y2="775.22mm" stroke="black" stroke-width="1"/>
<line x1="0mm" x2="17.78mm" y1="797.89mm" y2="797.89mm" stroke="black" stroke-width="1"/>
<line x1="8.89mm" x2="8.89mm" y1="789mm" y2="806.78mm" stroke="black" stroke-width="1"/>
<line x1="31.56mm" x2="49.34mm" y1="8.89mm" y2="8.89mm" stroke="black" stroke-width="1"/>
<line x1="40.45mm" x2="40.45mm" y1="0mm" y2="17.78mm" stroke="black" stroke-width="1"/>
<line x1="63.12mm" x2="80.9mm" y1="8.89mm" y2="8.89mm" stroke="black" stroke-width="1"/>
<line x1="72.01mm" x2="72.01mm" y1="0mm" y2="17.78mm" stroke="black" stroke-width="1"/>
<line x1="94.68mm" x2="112.46mm" y1="8.89mm" y2="8.89mm" stroke="black" stroke-width="1"/>
<line x1="103.57mm" x2="103.57mm" y1="0mm" y2="17.78mm" stroke="black" stroke-width="1"/>
<line x1="126.24mm" x2="144.02mm" y1="8.89mm" y2="8.89mm" stroke="black" stroke-width="1"/>
<line x1="135.13mm" x2="135.13mm" y1="0mm" y2="17.78mm" stroke="black" stroke-width="1"/>
<line x1="157.8mm" x2="175.58mm" y1="8.89mm" y2="8.89mm" stroke="black" stroke-width="1"/>
<line x1="166.69mm" x2="166.69mm" y1="0mm" y2="17.78mm" stroke="black" stroke-width="1"/>
<line x1="189.36mm" x2="207.14mm" y1="8.89mm" y2="8.89mm" stroke="black" stroke-width="1"/>
<line x1="198.25mm" x2="198.25mm" y1="0mm" y2="17.78mm" stroke="black" stroke-width="1"/>
<line x1="220.92mm" x2="238.7mm" y1="8.89mm" y2="8.89mm" stroke="black" stroke-width="1"/>
<line x1="229.81mm" x2="229.81mm" y1="0mm" y2="17.78mm" stroke="black" stroke-width="1"/>
<line x1="252.48mm" x2="270.26mm" y1="8.89mm" y2="8.89mm" stroke="black" stroke-width="1"/>
<line x1="261.37mm" x2="261.37mm" y1="0mm" y2="17.78mm" stroke="black" stroke-width="1"/>
<line x1="284.04mm" x2="301.82mm" y1="8.89mm" y2="8.89mm" stroke="black" stroke-width="1"/>
<line x1="292.93mm" x2="292.93mm" y1="0mm" y2="17.78mm" stroke="black" stroke-width="1"/>
<line x1="315.6mm" x2="333.38mm" y1="8.89mm" y2="8.89mm" stroke="black" stroke-width="1"/>
<line x1="324.49mm" x2="324.49mm" y1="0mm" y2="17.78mm" stroke="black" stroke-width="1"/>
<line x1="347.16mm" x2="364.94mm" y1="8.89mm" y2="8.89mm" stroke="black" stroke-width="1"/>
<line x1="356.05mm" x2="356.05mm" y1="0mm" y2="17.78mm" stroke="black" stroke-width="1"/>
<line x1="378.72mm" x2="396.5mm" y1="8.89mm" y2="8.89mm" stroke="black" stroke-width="1"/>
<line x1="387.61mm" x2="387.61mm" y1="0mm" y2="17.78mm" stroke="black" stroke-width="1"/>
<line x1="410.28mm" x2="428.06mm" y1="8.89mm" y2="8.89mm" stroke="black" stroke-width="1"/>
<line x1="419.17mm" x2="419.17mm" y1="0mm" y2="17.78mm" stroke="black" stroke-width="1"/>
<line x1="441.84mm" x2="459.62mm" y1="8.89mm" y2="8.89mm" stroke="black" stroke-width="1"/>
<line x1="450.73mm" x2="450.73mm" y1="0mm" y2="17.78mm" stroke="black" stroke-width="1"/>
<line x1="473.4mm" x2="491.18mm" y1="8.89mm" y2="8.89mm" stroke="black" stroke-width="1"/>
<line x1="482.29mm" x2="482.29mm" y1="0mm" y2="17.78mm" stroke="black" stroke-width="1"/>
<line x1="504.96mm" x2="522.74mm" y1="8.89mm" y2="8.89mm" stroke="black" stroke-width="1"/>
<line x1="513.85mm" x2="513.85mm" y1="0mm" y2="17.78mm" stroke="black" stroke-width="1"/>
<line x1="536.52mm" x2="554.3mm" y1="8.89mm" y2="8.89mm" stroke="black" stroke-width="1"/>
<line x1="545.41mm" x2="545.41mm" y1="0mm" y2="17.78mm" stroke="black" stroke-width="1"/>
<line x1="568.08mm" x2="585.86mm" y1="8.89mm" y2="8.89mm" stroke="black" stroke-width="1"/>
<line x1="576.97mm" x2="576.97mm" y1="0mm" y2="17.78mm" stroke="black" stroke-width="1"/>
<circle cx="40.45mm" cy="40.45mm" r="6.35mm" fill="black" stoke-width="0"/>
<circle cx="72.01mm" cy="40.45mm" r="8.89mm" fill="black" stoke-width="0"/>
<circle cx="103.57mm" cy="40.45mm" r="6.35mm" fill="black" stoke-width="0"/>
<circle cx="135.13mm" cy="40.45mm" r="6.35mm" fill="black" stoke-width="0"/>
<circle cx="166.69mm" cy="40.45mm" r="8.89mm" fill="black" stoke-width="0"/>
<circle cx="198.25mm" cy="40.45mm" r="8.89mm" fill="black" stoke-width="0"/>
<circle cx="229.81mm" cy="40.45mm" r="6.35mm" fill="black" stoke-width="0"/>
<circle cx="261.37mm" cy="40.45mm" r="6.35mm" fill="black" stoke-width="0"/>
<circle cx="292.93mm" cy="40.45mm" r="8.89mm" fill="black" stoke-width="0"/>
<circle cx="324.49mm" cy="40.45mm" r="8.89mm" fill="black" stoke-width="0"/>
<circle cx="356.05mm" cy="40.45mm" r="8.89mm" fill="black" stoke-width="0"/>
<circle cx="387.61mm" cy="40.45mm" r="6.35mm" fill="black" stoke-width="0"/>
<circle cx="419.17mm" cy="40.45mm" r="8.89mm" fill="black" stoke-width="0"/>
<circle cx="450.73mm" cy="40.45mm" r="6.35mm" fill="black" stoke-width="0"/>
<circle cx="482.29mm" cy="40.45mm" r="8.89mm" fill="black" stoke-width="0"/>
<circle cx="513.85mm" cy="40.45mm" r="6.35mm" fill="black" stoke-width="0"/>
<circle cx="545.41mm" cy="40.45mm" r="8.89mm" fill="black" stoke-width="0"/>
<circle cx="576.97mm" cy="40.45mm" r="6.35mm" fill="black" stoke-width="0"/>
<circle cx="40.45mm" cy="72.01mm" r="6.35mm" fill="black" stoke-width="0"/>
<circle cx="72.01mm" cy="72.01mm" r="8.89mm" fill="black" stoke-width="0"/>
<circle cx="103.57mm" cy="72.01mm" r="6.35mm" fill="black" stoke-width="0"/>
<circle cx="135.13mm" cy="72.01mm" r="8.89mm" fill="black" stoke-width="0"/>
<circle cx="166.69mm" cy="72.01mm" r="8.89mm" fill="black" stoke-width="0"/>
<circle cx="198.25mm" cy="72.01mm" r="6.35mm" fill="black" stoke-width="0"/>
<circle cx="229.81mm" cy="72.01mm" r="6.35mm" fill="black" stoke-width="0"/>
<circle cx="261.37mm" cy="72.01mm" r="6.35mm" fill="black" stoke-width="0"/>
<circle cx="292.93mm" cy="72.01mm" r="8.89mm" fill="black" stoke-width="0"/>
<circle cx="324.49mm" cy="72.01mm" r="8.89mm" fill="black" stoke-width="0"/>
<circle cx="356.05mm" cy="72.01mm" r="6.35mm" fill="black" stoke-width="0"/>
<circle cx="387.61mm" cy="72.01mm" r="8.89mm" fill="black" stoke-width="0"/>
<circle cx="419.17mm" cy="72.01mm" r="8.89mm" fill="black" stoke-width="0"/>
<circle cx="450.73mm" cy="72.01mm" r="6.35mm" fill="black" stoke-width="0"/>
<circle cx="482.29mm" cy="72.01mm" r="6.35mm" fill="black" stoke-width="0"/>
<circle cx="513.85mm" cy="72.01mm" r="6.35mm" fill="black" stoke-width="0"/>
<circle cx="545.41mm" cy="72.01mm" r="8.89mm" fill="black" stoke-width="0"/>
<circle cx="576.97mm" cy="72.01mm" r="8.89mm" fill="black" stoke-width="0"/>
<circle cx="40.45mm" cy="103.57mm" r="8.89mm" fill="black" stoke-width="0"/>
<circle cx="72.01mm" cy="103.57mm" r="8.89mm" fill="black" stoke-width="0"/>
<circle cx="103.57mm" cy="103.57mm" r="6.35mm" fill="black" stoke-width="0"/>
<circle cx="135.13mm" cy="103.57mm" r="6.35mm" fill="black" stoke-width="0"/>
<circle cx="166.69mm" cy="103.57mm" r="6.35mm" fill="black" stoke-width="0"/>
<circle cx="198.25mm" cy="103.57mm" r="6.35mm" fill="black" stoke-width="0"/>
<circle cx="229.81mm" cy="103.57mm" r="6.35mm" fill="black" stoke-width="0"/>
<circle cx="261.37mm" cy="103.57mm" r="6.35mm" fill="black" stoke-width="0"/>
<circle cx="292.93mm" cy="103.57mm" r="8.89mm" fill="black" stoke-width="0"/>
<circle cx="324.49mm" cy="103.57mm" r="8.89mm" fill="black" stoke-width="0"/>
<circle cx="356.05mm" cy="103.57mm" r="6.35mm" fill="black" stoke-width="0"/>
<circle cx="387.61mm" cy="103.57mm" r="8.89mm" fill="black" stoke-width="0"/>
<circle cx="419.17mm" cy="103.57mm" r="8.89mm" fill="black" stoke-width="0"/>
<circle cx="450.73mm" cy="103.57mm" r="8.89mm" fill="black" stoke-width="0"/>
<circle cx="482.29mm" cy="103.57mm" r="8.89mm" fill="black" stoke-width="0"/>
<circle cx="513.85mm" cy="103.57mm" r="6.35mm" fill="black" stoke-width="0"/>
<circle cx="545.41mm" cy="103.57mm" r="6.35mm" fill="black" stoke-width="0"/>
<circle cx="576.97mm" cy="103.57mm" r="6.35mm" fill="black" stoke-width="0"/>
<circle cx="40.45mm" cy="135.13mm" r="6.35mm" fill="black" stoke-width="0"/>
<circle cx="72.01mm" cy="135.13mm" r="8.89mm" fill="black" stoke-width="0"/>
<circle cx="103.57mm" cy="135.13mm" r="6.35mm" fill="black" stoke-width="0"/>
<circle cx="135.13mm" cy="135.13mm" r="8.89mm" fill="black" stoke-width="0"/>
<circle cx="166.69mm" cy="135.13mm" r="8.89mm" fill="black" stoke-width="0"/>
<circle cx="198.25mm" cy="135.13mm" r="8.89mm" fill="black" stoke-width="0"/>
<circle cx="229.81mm" cy="135.13mm" r="6.35mm" fill="black" stoke-width="0"/>
<circle cx="261.37mm" cy="135.13mm" r="8.89mm" fill="black" stoke-width="0"/>
<circle cx="292.93mm" cy="135.13mm" r="6.35mm" fill="black" stoke-width="0"/>
<circle cx="324.49mm" cy="135.13mm" r="6.35mm" fill="black" stoke-width="0"/>
<circle cx="356.05mm" cy="135.13mm" r="8.89mm" fill="black" stoke-width="0"/>
<circle cx="387.61mm" cy="135.13mm" r="8.89mm" fill="black" stoke-width="0"/>
<circle cx="419.17mm" cy="135.13mm" r="6.35mm" fill="black" stoke-width="0"/>
<circle cx="450.73mm" cy="135.13mm" r="6.35mm" fill="black" stoke-width="0"/>
<circle cx="482.29mm" cy="135.13mm" r="8.89mm" fill="black" stoke-width="0"/>
<circle cx="513.85mm" cy="135.13mm" r="8.89mm" fill="black" stoke-width="0"/>
<circle cx="545.41mm" cy="135.13mm" r="6.35mm" fill="black" stoke-width="0"/>
<circle cx="576.97mm" cy="135.13mm" r="6.35mm" fill="black" stoke-width="0"/>
<circle cx="40.45mm" cy="166.69mm" r="6.35mm" fill="black" stoke-width="0"/>
<circle cx="72.01mm" cy="166.69mm" r="8.89mm" fill="black" stoke-width="0"/>
<circle cx="103.57mm" cy="166.69mm" r="6.35mm" fill="black" stoke-width="0"/>
<circle cx="135.13mm" cy="166.69mm" r="6.35mm" fill="black" stoke-width="0"/>
<circle cx="166.69mm" cy="166.69mm" r="6.35mm" fill="black" stoke-width="0"/>
<circle cx="198.25mm" cy="166.69mm" r="8.89mm" fill="black" stoke-width="0"/>
<circle cx="229.81mm" cy="166.69mm" r="6.35mm" fill="black" stoke-width="0"/>
<circle cx="261.37mm" cy="166.69mm" r="8.89mm" fill="black" stoke-width="0"/>
<circle cx="292.93mm" cy="166.69mm" r="8.89mm" fill="black" stoke-width="0"/>
<circle cx="324.49mm" cy="166.69mm" r="6.35mm" fill="black" stoke-width="0"/>
<circle cx="356.05mm" cy="166.69mm" r="8.89mm" fill="black" stoke-width="0"/>
<circle cx="387.61mm" cy="166.69mm" r="8.89mm" fill="black" stoke-width="0"/>
<circle cx="419.17mm" cy="166.69mm" r="6.35mm" fill="black" stoke-width="0"/>
<circle cx="450.73mm" cy="166.69mm" r="8.89mm" fill="black" stoke-width="0"/>
<circle cx="482.29mm" cy="166.69mm" r="8.89mm" fill="black" stoke-width="0"/>
<circle cx="513.85mm" cy="166.69mm" r="8.89mm" fill="black" stoke-width="0"/>
<circle cx="545.41mm" cy="166.69mm" r="8.89mm" fill="black" stoke-width="0"/>
<circle cx="576.97mm" cy="166.69mm" r="6.35mm" fill="black" stoke-width="0"/>
<circle cx="40.45mm" cy="198.25mm" r="8.89mm" fill="black" stoke-width="0"/>
<circle cx="72.01mm" cy="198.25mm" r="6.35mm" fill="black" stoke-width="0"/>
<circle cx="103.57mm" cy="198.25mm" r="6.35mm" fill="black" stoke-width="0"/>
<circle cx="135.13mm" cy="198.25mm" r="6.35mm" fill="black" stoke-width="0"/>
<circle cx="166.69mm" cy="198.25mm" r="8.89mm" fill="black" stoke-width="0"/>
<circle cx="198.25mm" cy="198.25mm" r="6.35mm" fill="black" stoke-width="0"/>
<circle cx="229.81mm" cy="198.25mm" r="8.89mm" fill="black" stoke-width="0"/>
<circle cx="261.37mm" cy="198.25mm" r="6.35mm" fill="black" stoke-width="0"/>
<circle cx="292.93mm" cy="198.25mm" r="6.35mm" fill="black" stoke-width="0"/>
<circle cx="324.49mm" cy="198.25mm" r="6.35mm" fill="black" stoke-width="0"/>
<circle cx="356.05mm" cy="198.25mm" r="8.89mm" fill="black" stoke-width="0"/>
<circle cx="387.61mm" cy="198.25mm" r="8.89mm" fill="black" stoke-width="0"/>
<circle cx="419.17mm" cy="198.25mm" r="8.89mm" fill="black" stoke-width="0"/>
<circle cx="450.73mm" cy="198.25mm" r="6.35mm" fill="black" stoke-width="0"/>
<circle cx="482.29mm" cy="198.25mm" r="6.35mm" fill="black" stoke-width="0"/>
<circle cx="513.85mm" cy="198.25mm" r="6.35mm" fill="black" stoke-width="0"/>
<circle cx="545.41mm" cy="198.25mm" r="6.35mm" fill="black" stoke-width="0"/>
<circle cx="576.97mm" cy="198.25mm" r="6.35mm" fill="black" stoke-width="0"/>
<circle cx="40.45mm" cy="229.81mm" r="8.89mm" fill="black" stoke-width="0"/>
<circle cx="72.01mm" cy="229.81mm" r="6.35mm" fill="black" stoke-width="0"/>
<circle cx="103.57mm" cy="229.81mm" r="8.89mm" fill="black" stoke-width="0"/>
<circle cx="135.13mm" cy="229.81mm" r="8.89mm" fill="black" stoke-width="0"/>
<circle cx="166.69mm" cy="229.81mm" r="6.35mm" fill="black" stoke-width="0"/>
<circle cx="198.25mm" cy="229.81mm" r="6.35mm" fill="black" stoke-width="0"/>
<circle cx="229.81mm" cy="229.81mm" r="8.89mm" fill="black" stoke-width="0"/>
<circle cx="261.37mm" cy="229.81mm" r="8.89mm" fill="black" stoke-width="0"/>
<circle cx="292.93mm" cy="229.81mm" r="6.35mm" fill="black" stoke-width="0"/>
<circle cx="324.49mm" cy="229.81mm" r="8.89mm" fill="black" stoke-width="0"/>
<circle cx="356.05mm" cy="229.81mm" r="8.89mm" fill="black" stoke-width="0"/>
<circle cx="387.61mm" cy="229.81mm" r="8.89mm" fill="black" stoke-width="0"/>
<circle cx="419.17mm" cy="229.81mm" r="6.35mm" fill="black" stoke-width="0"/>
<circle cx="450.73mm" cy="229.81mm" r="6.35mm" fill="black" stoke-width="0"/>
<circle cx="482.29mm" cy="229.81mm" r="8.89mm" fill="black" stoke-width="0"/>
<circle cx="513.85mm" cy="229.81mm" r="6.35mm" fill="black" stoke-width="0"/>
<circle cx="545.41mm" cy="229.81mm" r="6.35mm" fill="black" stoke-width="0"/>
<circle cx="576.97mm" cy="229.81mm" r="6.35mm" fill="black" stoke-width="0"/>
<circle cx="40.45mm" cy="261.37mm" r="6.35mm" fill="black" stoke-width="0"/>
<circle cx="72.01mm" cy="261.37mm" r="6.35mm" fill="black" stoke-width="0"/>
<circle cx="103.57mm" cy="261.37mm" r="6.35mm" fill="black" stoke-width="0"/>
<circle cx="135.13mm" cy="261.37mm" r="6.35mm" fill="black" stoke-width="0"/>
<circle cx="166.69mm" cy="261.37mm" r="8.89mm" fill="black" stoke-width="0"/>
<circle cx="198.25mm" cy="261.37mm" r="6.35mm" fill="black" stoke-width="0"/>
<circle cx="229.81mm" cy="261.37mm" r="8.89mm" fill="black" stoke-width="0"/>
<circle cx="261.37mm" cy="261.37mm" r="6.35mm" fill="black" stoke-width="0"/>
<circle cx="292.93mm" cy="261.37mm" r="6.35mm" fill="black" stoke-width="0"/>
<circle cx="324.49mm" cy="261.37mm" r="6.35mm" fill="black" stoke-width="0"/>
<circle cx="356.05mm" cy="261.37mm" r="6.35mm" fill="black" stoke-width="0"/>
<circle cx="387.61mm" cy="261.37mm" r="6.35mm" fill="black" stoke-width="0"/>
<circle cx="419.17mm" cy="261.37mm" r="6.35mm" fill="black" stoke-width="0"/>
<circle cx="450.73mm" cy="261.37mm" r="6.35mm" fill="black" stoke-width="0"/>
<circle cx="482.29mm" cy="261.37mm" r="8.89mm" fill="black" stoke-width="0"/>
<circle cx="513.85mm" cy="261.37mm" r="6.35mm" fill="black" stoke-width="0"/>
<circle cx="545.41mm" cy="261.37mm" r="8.89mm" fill="black" stoke-width="0"/>
<circle cx="576.97mm" cy="261.37mm" r="6.35mm" fill="black" stoke-width="0"/>
<circle cx="40.45mm" cy="292.93mm" r="8.89mm" fill="black" stoke-width="0"/>
<circle cx="72.01mm" cy="292.93mm" r="6.35mm" fill="black" stoke-width="0"/>
<circle cx="103.57mm" cy="292.93mm" r="6.35mm" fill="black" stoke-width="0"/>
<circle cx="135.13mm" cy="292.93mm" r="8.89mm" fill="black" stoke-width="0"/>
<circle cx="166.69mm" cy="292.93mm" r="8.89mm" fill="black" stoke-width="0"/>
<circle cx="198.25mm" cy="292.93mm" r="8.89mm" fill="black" stoke-width="0"/>
<circle cx="229.81mm" cy="292.93mm" r="8.89mm" fill="black" stoke-width="0"/>
<circle cx="261.37mm" cy="292.93mm" r="6.35mm" fill="black" stoke-width="0"/>
<circle cx="292.93mm" cy="292.93mm" r="6.35mm" fill="black" stoke-width="0"/>
<circle cx="324.49mm" cy="292.93mm" r="8.89mm" fill="black" stoke-width="0"/>
<circle cx="356.05mm" cy="292.93mm" r="6.35mm" fill="black" stoke-width="0"/>
<circle cx="387.61mm" cy="292.93mm" r="8.89mm" fill="black" stoke-width="0"/>
<circle cx="419.17mm" cy="292.93mm" r="6.35mm" fill="black" stoke-width="0"/>
<circle cx="450.73mm" cy="292.93mm" r="6.35mm" fill="black" stoke-width="0"/>
<circle cx="482.29mm" cy="292.93mm" r="8.89mm" fill="black" stoke-width="0"/>
<circle cx="513.85mm" cy="292.93mm" r="6.35mm" fill="black" stoke-width="0"/>
<circle cx="545.41mm" cy="292.93mm" r="8.89mm" fill="black" stoke-width="0"/>
<circle cx="576.97mm" cy="292.93mm" r="8.89mm" fill="black" stoke-width="0"/>
<circle cx="40.45mm" cy="324.49mm" r="8.89mm" fill="black" stoke-width="0"/>
<circle cx="72.01mm" cy="324.49mm" r="8.89mm" fill="black" stoke-width="0"/>
<circle cx="103.57mm" cy="324.49mm" r="8.89mm" fill="black" stoke-width="0"/>
<circle cx="135.13mm" cy="324.49mm" r="6.35mm" fill="black" stoke-width="0"/>
<circle cx="166.69mm" cy="324.49mm" r="6.35mm" fill="black" stoke-width="0"/>
<circle cx="198.25mm" cy="324.49mm" r="6.35mm" fill="black" stoke-width="0"/>
<circle cx="229.81mm" cy="324.49mm" r="8.89mm" fill="black" stoke-width="0"/>
<circle cx="261.37mm" cy="324.49mm" r="8.89mm" fill="black" stoke-width="0"/>
<circle cx="292.93mm" cy="324.49mm" r="6.35mm" fill="black" stoke-width="0"/>
<circle cx="324.49mm" cy="324.49mm" r="6.35mm" fill="black" stoke-width="0"/>
<circle cx="356.05mm" cy="324.49mm" r="6.35mm" fill="black" stoke-width="0"/>
<circle cx="387.61mm" cy="324.49mm" r="6.35mm" fill="black" stoke-width="0"/>
<circle cx="419.17mm" cy="324.49mm" r="8.89mm" fill="black" stoke-width="0"/>
<circle cx="450.73mm" cy="324.49mm" r="6.35mm" fill="black" stoke-width="0"/>
<circle cx="482.29mm" cy="324.49mm" r="8.89mm" fill="black" stoke-width="0"/>
<circle cx="513.85mm" cy="324.49mm" r="6.35mm" fill="black" stoke-width="0"/>
<circle cx="545.41mm" cy="324.49mm" r="8.89mm" fill="black" stoke-width="0"/>
<circle cx="576.97mm" cy="324.49mm" r="6.35mm" fill="black" stoke-width="0"/>
<circle cx="40.45mm" cy="356.05mm" r="8.89mm" fill="black" stoke-width="0"/>
<circle cx="72.01mm" cy="356.05mm" r="8.89mm" fill="black" stoke-width="0"/>
<circle cx="103.57mm" cy="356.05mm" r="6.35mm" fill="black" stoke-width="0"/>
<circle cx="135.13mm" cy="356.05mm" r="8.89mm" fill="black" stoke-width="0"/>
<circle cx="166.69mm" cy="356.05mm" r="8.89mm" fill="black" stoke-width="0"/>
<circle cx="198.25mm" cy="356.05mm" r="8.89mm" fill="black" stoke-width="0"/>
<circle cx="229.81mm" cy="356.05mm" r="8.89mm" fill="black" stoke-width="0"/>
<circle cx="261.37mm" cy="356.05mm" r="6.35mm" fill="black" stoke-width="0"/>
<circle cx="292.93mm" cy="356.05mm" r="8.89mm" fill="black" stoke-width="0"/>
<circle cx="324.49mm" cy="356.05mm" r="6.35mm" fill="black" stoke-width="0"/>
<circle cx="356.05mm" cy="356.05mm" r="8.89mm" fill="black" stoke-width="0"/>
<circle cx="387.61mm" cy="356.05mm" r="6.35mm" fill="black" stoke-width="0"/>
<circle cx="419.17mm" cy="356.05mm" r="8.89mm" fill="black" stoke-width="0"/>
<circle cx="450.73mm" cy="356.05mm" r="6.35mm" fill="black" stoke-width="0"/>
<circle cx="482.29mm" cy="356.05mm" r="8.89mm" fill="black" stoke-width="0"/>
<circle cx="513.85mm" cy="356.05mm" r="8.89mm" fill="black" stoke-width="0"/>
<circle cx="545.41mm" cy="356.05mm" r="8.89mm" fill="black" stoke-width="0"/>
<circle cx="576.97mm" cy="356.05mm" r="8.89mm" fill="black" stoke-width="0"/>
<circle cx="40.45mm" cy="387.61mm" r="6.35mm" fill="black" stoke-width="0"/>
<circle cx="72.01mm" cy="387.61mm" r="6.35mm" fill="black" stoke-width="0"/>
<circle cx="103.57mm" cy="387.61mm" r="8.89mm" fill="black" stoke-width="0"/>
<circle cx="135.13mm" cy="387.61mm" r="8.89mm" fill="black" stoke-width="0"/>
<circle cx="166.69mm" cy="387.61mm" r="8.89mm" fill="black" stoke-width="0"/>
<circle cx="198.25mm" cy="387.61mm" r="8.89mm" fill="black" stoke-width="0"/>
<circle cx="229.81mm" cy="387.61mm" r="6.35mm" fill="black" stoke-width="0"/>
<circle cx="261.37mm" cy="387.61mm" r="8.89mm" fill="black" stoke-width="0"/>
<circle cx="292.93mm" cy="387.61mm" r="8.89mm" fill="black" stoke-width="0"/>
<circle cx="324.49mm" cy="387.61mm" r="6.35mm" fill="black" stoke-width="0"/>
<circle cx="356.05mm" cy="387.61mm" r="8.89mm" fill="black" stoke-width="0"/>
<circle cx="387.61mm" cy="387.61mm" r="6.35mm" fill="black" stoke-width="0"/>
<circle cx="419.17mm" cy="387.61mm" r="6.35mm" fill="black" stoke-width="0"/>
<circle cx="450.73mm" cy="387.61mm" r="8.89mm" fill="black" stoke-width="0"/>
<circle cx="482.29mm" cy="387.61mm" r="8.89mm" fill="black" stoke-width="0"/>
<circle cx="513.85mm" cy="387.61mm" r="6.35mm" fill="black" stoke-width="0"/>
<circle cx="545.41mm" cy="387.61mm" r="8.89mm" fill="black" stoke-width="0"/>
<circle cx="576.97mm" cy="387.61mm" r="6.35mm" fill="black" stoke-width="0"/>
<circle cx="40.45mm" cy="419.17mm" r="6.35mm" fill="black" stoke-width="0"/>
<circle cx="72.01mm" cy="419.17mm" r="6.35mm" fill="black" stoke-width="0"/>
<circle cx="103.57mm" cy="419.17mm" r="8.89mm" fill="black" stoke-width="0"/>
<circle cx="135.13mm" cy="419.17mm" r="8.89mm" fill="black" stoke-width="0"/>
<circle cx="166.69mm" cy="419.17mm" r="6.35mm" fill="black" stoke-width="0"/>
<circle cx="198.25mm" cy="419.17mm" r="8.89mm" fill="black" stoke-width="0"/>
<circle cx="229.81mm" cy="419.17mm" r="6.35mm" fill="black" stoke-width="0"/>
<circle cx="261.37mm" cy="419.17mm" r="8.89mm" fill="black" stoke-width="0"/>
<circle cx="292.93mm" cy="419.17mm" r="6.35mm" fill="black" stoke-width="0"/>
<circle cx="324.49mm" cy="419.17mm" r="8.89mm" fill="black" stoke-width="0"/>
<circle cx="356.05mm" cy="419.17mm" r="8.89mm" fill="black" stoke-width="0"/>
<circle cx="387.61mm" cy="419.17mm" r="6.35mm" fill="black" stoke-width="0"/>
<circle cx="419.17mm" cy="419.17mm" r="6.35mm" fill="black" stoke-width="0"/>
<circle cx="450.73mm" cy="419.17mm" r="6.35mm" fill="black" stoke-width="0"/>
<circle cx="482.29mm" cy="419.17mm" r="6.35mm" fill="black" stoke-width="0"/>
<circle cx="513.85mm" cy="419.17mm" r="8.89mm" fill="black" stoke-width="0"/>
<circle cx="545.41mm" cy="419.17mm" r="8.89mm" fill="black" stoke-width="0"/>
<circle cx="576.97mm" cy="419.17mm" r="6.35mm" fill="black" stoke-width="0"/>
<circle cx="40.45mm" cy="450.73mm" r="8.89mm" fill="black" stoke-width="0"/>
<circle cx="72.01mm" cy="450.73mm" r="6.35mm" fill="black" stoke-width="0"/>
<circle cx="103.57mm" cy="450.73mm" r="6.35mm" fill="black" stoke-width="0"/>
<circle cx="135.13mm" cy="450.73mm" r="6.35mm" fill="black" stoke-width="0"/>
<circle cx="166.69mm" cy="450.73mm" r="8.89mm" fill="black" stoke-width="0"/>
<circle cx="198.25mm" cy="450.73mm" r="6.35mm" fill="black" stoke-width="0"/>
<circle cx="229.81mm" cy="450.73mm" r="6.35mm" fill="black" stoke-width="0"/>
<circle cx="261.37mm" cy="450.73mm" r="8.89mm" fill="black" stoke-width="0"/>
<circle cx="292.93mm" cy="450.73mm" r="8.89mm" fill="black" stoke-width="0"/>
<circle cx="324.49mm" cy="450.73mm" r="8.89mm" fill="black" stoke-width="0"/>
<circle cx="356.05mm" cy="450.73mm" r="8.89mm" fill="black" stoke-width="0"/>
<circle cx="387.61mm" cy="450.73mm" r="6.35mm" fill="black" stoke-width="0"/>
<circle cx="419.17mm" cy="450.73mm" r="8.89mm" fill="black" stoke-width="0"/>
<circle cx="450.73mm" cy="450.73mm" r="8.89mm" fill="black" stoke-width="0"/>
<circle cx="482.29mm" cy="450.73mm" r="6.35mm" fill="black" stoke-width="0"/>
<circle cx="513.85mm" cy="450.73mm" r="8.89mm" fill="black" stoke-width="0"/>
<circle cx="545.41mm" cy="450.73mm" r="6.35mm" fill="black" stoke-width="0"/>
<circle cx="576.97mm" cy="450.73mm" r="6.35mm" fill="black" stoke-width="0"/>
<circle cx="40.45mm" cy="482.29mm" r="6.35mm" fill="black" stoke-width="0"/>
<circle cx="72.01mm" cy="482.29mm" r="6.35mm" fill="black" stoke-width="0"/>
<circle cx="103.57mm" cy="482.29mm" r="8.89mm" fill="black" stoke-width="0"/>
<circle cx="135.13mm" cy="482.29mm" r="6.35mm" fill="black" stoke-width="0"/>
<circle cx="166.69mm" cy="482.29mm" r="8.89mm" fill="black" stoke-width="0"/>
<circle cx="198.25mm" cy="482.29mm" r="8.89mm" fill="black" stoke-width="0"/>
<circle cx="229.81mm" cy="482.29mm" r="6.35mm" fill="black" stoke-width="0"/>
<circle cx="261.37mm" cy="482.29mm" r="6.35mm" fill="black" stoke-width="0"/>
<circle cx="292.93mm" cy="482.29mm" r="8.89mm" fill="black" stoke-width="0"/>
<circle cx="324.49mm" cy="482.29mm" r="8.89mm" fill="black" stoke-width="0"/>
<circle cx="356.05mm" cy="482.29mm" r="6.35mm" fill="black" stoke-width="0"/>
<circle cx="387.61mm" cy="482.29mm" r="6.35mm" fill="black" stoke-width="0"/>
<circle cx="419.17mm" cy="482.29mm" r="6.35mm" fill="black" stoke-width="0"/>
<circle cx="450.73mm" cy="482.29mm" r="8.89mm" fill="black" stoke-width="0"/>
<circle cx="482.29mm" cy="482.29mm" r="8.89mm" fill="black" stoke-width="0"/>
<circle cx="513.85mm" cy="482.29mm" r="8.89mm" fill="black" stoke-width="0"/>
<circle cx="545.41mm" cy="482.29mm" r="8.89mm" fill="black" stoke-width="0"/>
<circle cx="576.97mm" cy="482.29mm" r="6.35mm" fill="black" stoke-width="0"/>
<circle cx="40.45mm" cy="513.85mm" r="6.35mm" fill="black" stoke-width="0"/>
<circle cx="72.01mm" cy="513.85mm" r="8.89mm" fill="black" stoke-width="0"/>
<circle cx="103.57mm" cy="513.85mm" r="8.89mm" fill="black" stoke-width="0"/>
<circle cx="135.13mm" cy="513.85mm" r="6.35mm" fill="black" stoke-width="0"/>
<circle cx="166.69mm" cy="513.85mm" r="8.89mm" fill="black" stoke-width="0"/>
<circle cx="198.25mm" cy="513.85mm" r="8.89mm" fill="black" stoke-width="0"/>
<circle cx="229.81mm" cy="513.85mm" r="6.35mm" fill="black" stoke-width="0"/>
<circle cx="261.37mm" cy="513.85mm" r="6.35mm" fill="black" stoke-width="0"/>
<circle cx="292.93mm" cy="513.85mm" r="6.35mm" fill="black" stoke-width="0"/>
<circle cx="324.49mm" cy="513.85mm" r="6.35mm" fill="black" stoke-width="0"/>
<circle cx="356.05mm" cy="513.85mm" r="6.35mm" fill="black" stoke-width="0"/>
<circle cx="387.61mm" cy="513.85mm" r="6.35mm" fill="black" stoke-width="0"/>
<circle cx="419.17mm" cy="513.85mm" r="6.35mm" fill="black" stoke-width="0"/>
<circle cx="450.73mm" cy="513.85mm" r="8.89mm" fill="black" stoke-width="0"/>
<circle cx="482.29mm" cy="513.85mm" r="8.89mm" fill="black" stoke-width="0"/>
<circle cx="513.85mm" cy="513.85mm" r="6.35mm" fill="black" stoke-width="0"/>
<circle cx="545.41mm" cy="513.85mm" r="6.35mm" fill="black" stoke-width="0"/>
<circle cx="576.97mm" cy="513.85mm" r="8.89mm" fill="black" stoke-width="0"/>
<circle cx="40.45mm" cy="545.41mm" r="6.35mm" fill="black" stoke-width="0"/>
<circle cx="72.01mm" cy="545.41mm" r="6.35mm" fill="black" stoke-width="0"/>
<circle cx="103.57mm" cy="545.41mm" r="8.89mm" fill="black" stoke-width="0"/>
<circle cx="135.13mm" cy="545.41mm" r="8.89mm" fill="black" stoke-width="0"/>
<circle cx="166.69mm" cy="545.41mm" r="6.35mm" fill="black" stoke-width="0"/>
<circle cx="198.25mm" cy="545.41mm" r="8.89mm" fill="black" stoke-width="0"/>
<circle cx="229.81mm" cy="545.41mm" r="6.35mm" fill="black" stoke-width="0"/>
<circle cx="261.37mm" cy="545.41mm" r="6.35mm" fill="black" stoke-width="0"/>
<circle cx="292.93mm" cy="545.41mm" r="6.35mm" fill="black" stoke-width="0"/>
<circle cx="324.49mm" cy="545.41mm" r="6.35mm" fill="black" stoke-width="0"/>
<circle cx="356.05mm" cy="545.41mm" r="6.35mm" fill="black" stoke-width="0"/>
<circle cx="387.61mm" cy="545.41mm" r="8.89mm" fill="black" stoke-width="0"/>
<circle cx="419.17mm" cy="545.41mm" r="6.35mm" fill="black" stoke-width="0"/>
<circle cx="450.73mm" cy="545.41mm" r="8.89mm" fill="black" stoke-width="0"/>
<circle cx="482.29mm" cy="545.41mm" r="6.35mm" fill="black" stoke-width="0"/>
<circle cx="513.85mm" cy="545.41mm" r="6.35mm" fill="black" stoke-width="0"/>
<circle cx="545.41mm" cy="545.41mm" r="8.89mm" fill="black" stoke-width="0"/>
<circle cx="576.97mm" cy="545.41mm" r="6.35mm" fill="black" stoke-width="0"/>
<circle cx="40.45mm" cy="576.97mm" r="8.89mm" fill="black" stoke-width="0"/>
<circle cx="72.01mm" cy="576.97mm" r="8.89mm" fill="black" stoke-width="0"/>
<circle cx="103.57mm" cy="576.97mm" r="6.35mm" fill="black" stoke-width="0"/>
<circle cx="135.13mm" cy="576.97mm" r="8.89mm" fill="black" stoke-width="0"/>
<circle cx="166.69mm" cy="576.97mm" r="8.89mm" fill="black" stoke-width="0"/>
<circle cx="198.25mm" cy="576.97mm" r="6.35mm" fill="black" stoke-width="0"/>
<circle cx="229.81mm" cy="576.97mm" r="6.35mm" fill="black" stoke-width="0"/>
<circle cx="261.37mm" cy="576.97mm" r="6.35mm" fill="black" stoke-width="0"/>
<circle cx="292.93mm" cy="576.97mm" r="8.89mm" fill="black" stoke-width="0"/>
<circle cx="324.49mm" cy="576.97mm" r="8.89mm" fill="black" stoke-width="0"/>
<circle cx="356.05mm" cy="576.97mm" r="6.35mm" fill="black" stoke-width="0"/>
<circle cx="387.61mm" cy="576.97mm" r="8.89mm" fill="black" stoke-width="0"/>
<circle cx="419.17mm" cy="576.97mm" r="8.89mm" fill="black" stoke-width="0"/>
<circle cx="450.73mm" cy="576.97mm" r="6.35mm" fill="black" stoke-width="0"/>
<circle cx="482.29mm" cy="576.97mm" r="6.35mm" fill="black" stoke-width="0"/>
<circle cx="513.85mm" cy="576.97mm" r="8.89mm" fill="black" stoke-width="0"/>
<circle cx="545.41mm" cy="576.97mm" r="8.89mm" fill="black" stoke-width="0"/>
<circle cx="576.97mm" cy="576.97mm" r="6.35mm" fill="black" stoke-width="0"/>
<circle cx="40.45mm" cy="608.53mm" r="6.35mm" fill="black" stoke-width="0"/>
<circle cx="72.01mm" cy="608.53mm" r="8.89mm" fill="black" stoke-width="0"/>
<circle cx="103.57mm" cy="608.53mm" r="6.35mm" fill="black" stoke-width="0"/>
<circle cx="135.13mm" cy="608.53mm" r="6.35mm" fill="black" stoke-width="0"/>
<circle cx="166.69mm" cy="608.53mm" r="8.89mm" fill="black" stoke-width="0"/>
<circle cx="198.25mm" cy="608.53mm" r="8.89mm" fill="black" stoke-width="0"/>
<circle cx="229.81mm" cy="608.53mm" r="8.89mm" fill="black" stoke-width="0"/>
<circle cx="261.37mm" cy="608.53mm" r="8.89mm" fill="black" stoke-width="0"/>
<circle cx="292.93mm" cy="608.53mm" r="8.89mm" fill="black" stoke-width="0"/>
<circle cx="324.49mm" cy="608.53mm" r="6.35mm" fill="black" stoke-width="0"/>
<circle cx="356.05mm" cy="608.53mm" r="6.35mm" fill="black" stoke-width="0"/>
<circle cx="387.61mm" cy="608.53mm" r="6.35mm" fill="black" stoke-width="0"/>
<circle cx="419.17mm" cy="608.53mm" r="8.89mm" fill="black" stoke-width="0"/>
<circle cx="450.73mm" cy="608.53mm" r="8.89mm" fill="black" stoke-width="0"/>
<circle cx="482.29mm" cy="608.53mm" r="8.89mm" fill="black" stoke-width="0"/>
<circle cx="513.85mm" cy="608.53mm" r="8.89mm" fill="black" stoke-width="0"/>
<circle cx="545.41mm" cy="608.53mm" r="8.89mm" fill="black" stoke-width="0"/>
<circle cx="576.97mm" cy="608.53mm" r="8.89mm" fill="black" stoke-width="0"/>
<circle cx="40.45mm" cy="640.09mm" r="6.35mm" fill="black" stoke-width="0"/>
<circle cx="72.01mm" cy="640.09mm" r="8.89mm" fill="black" stoke-width="0"/>
<circle cx="103.57mm" cy="640.09mm" r="6.35mm" fill="black" stoke-width="0"/>
<circle cx="135.13mm" cy="640.09mm" r="8.89mm" fill="black" stoke-width="0"/>
<circle cx="166.69mm" cy="640.09mm" r="8.89mm" fill="black" stoke-width="0"/>
<circle cx="198.25mm" cy="640.09mm" r="8.89mm" fill="black" stoke-width="0"/>
<circle cx="229.81mm" cy="640.09mm" r="6.35mm" fill="black" stoke-width="0"/>
<circle cx="261.37mm" cy="640.09mm" r="6.35mm" fill="black" stoke-width="0"/>
<circle cx="292.93mm" cy="640.09mm" r="6.35mm" fill="black" stoke-width="0"/>
<circle cx="324.49mm" cy="640.09mm" r="6.35mm" fill="black" stoke-width="0"/>
<circle cx="356.05mm" cy="640.09mm" r="8.89mm" fill="black" stoke-width="0"/>
<circle cx="387.61mm" cy="640.09mm" r="8.89mm" fill="black" stoke-width="0"/>
<circle cx="419.17mm" cy="640.09mm" r="8.89mm" fill="black" stoke-width="0"/>
<circle cx="450.73mm" cy="640.09mm" r="8.89mm" fill="black" stoke-width="0"/>
<circle cx="482.29mm" cy="640.09mm" r="8.89mm" fill="black" stoke-width="0"/>
<circle cx="513.85mm" cy="640.09mm" r="6.35mm" fill="black" stoke-width="0"/>
<circle cx="545.41mm" cy="640.09mm" r="8.89mm" fill="black" stoke-width="0"/>
<circle cx="576.97mm" cy="640.09mm" r="6.35mm" fill="black" stoke-width="0"/>
<circle cx="40.45mm" cy="671.65mm" r="8.89mm" fill="black" stoke-width="0"/>
<circle cx="72.01mm" cy="671.65mm" r="6.35mm" fill="black" stoke-width="0"/>
<circle cx="103.57mm" cy="671.65mm" r="6.35mm" fill="black" stoke-width="0"/>
<circle cx="135.13mm" cy="671.65mm" r="6.35mm" fill="black" stoke-width="0"/>
<circle cx="166.69mm" cy="671.65mm" r="8.89mm" fill="black" stoke-width="0"/>
<circle cx="198.25mm" cy="671.65mm" r="8.89mm" fill="black" stoke-width="0"/>
<circle cx="229.81mm" cy="671.65mm" r="6.35mm" fill="black" stoke-width="0"/>
<circle cx="261.37mm" cy="671.65mm" r="6.35mm" fill="black" stoke-width="0"/>
<circle cx="292.93mm" cy="671.65mm" r="8.89mm" fill="black" stoke-width="0"/>
<circle cx="324.49mm" cy="671.65mm" r="8.89mm" fill="black" stoke-width="0"/>
<circle cx="356.05mm" cy="671.65mm" r="6.35mm" fill="black" stoke-width="0"/>
<circle cx="387.61mm" cy="671.65mm" r="8.89mm" fill="black" stoke-width="0"/>
<circle cx="419.17mm" cy="671.65mm" r="8.89mm" fill="black" stoke-width="0"/>
<circle cx="450.73mm" cy="671.65mm" r="8.89mm" fill="black" stoke-width="0"/>
<circle cx="482.29mm" cy="671.65mm" r="8.89mm" fill="black" stoke-width="0"/>
<circle cx="513.85mm" cy="671.65mm" r="8.89mm" fill="black" stoke-width="0"/>
<circle cx="545.41mm" cy="671.65mm" r="8.89mm" fill="black" stoke-width="0"/>
<circle cx="576.97mm" cy="671.65mm" r="8.89mm" fill="black" stoke-width="0"/>
<circle cx="40.45mm" cy="703.21mm" r="6.35mm" fill="black" stoke-width="0"/>
<circle cx="72.01mm" cy="703.21mm" r="8.89mm" fill="black" stoke-width="0"/>
<circle cx="103.57mm" cy="703.21mm" r="6.35mm" fill="black" stoke-width="0"/>
<circle cx="135.13mm" cy="703.21mm" r="8.89mm" fill="black" stoke-width="0"/>
<circle cx="166.69mm" cy="703.21mm" r="6.35mm" fill="black" stoke-width="0"/>
<circle cx="198.25mm" cy="703.21mm" r="8.89mm" fill="black" stoke-width="0"/>
<circle cx="229.81mm" cy="703.21mm" r="8.89mm" fill="black" stoke-width="0"/>
<circle cx="261.37mm" cy="703.21mm" r="8.89mm" fill="black" stoke-width="0"/>
<circle cx="292.93mm" cy="703.21mm" r="6.35mm" fill="black" stoke-width="0"/>
<circle cx="324.49mm" cy="703.21mm" r="6.35mm" fill="black" stoke-width="0"/>
<circle cx="356.05mm" cy="703.21mm" r="8.89mm" fill="black" stoke-width="0"/>
<circle cx="387.61mm" cy="703.21mm" r="6.35mm" fill="black" stoke-width="0"/>
<circle cx="419.17mm" cy="703.21mm" r="8.89mm" fill="black" stoke-width="0"/>
<circle cx="450.73mm" cy="703.21mm" r="6.35mm" fill="black" stoke-width="0"/>
<circle cx="482.29mm" cy="703.21mm" r="6.35mm" fill="black" stoke-width="0"/>
<circle cx="513.85mm" cy="703.21mm" r="6.35mm" fill="black" stoke-width="0"/>
<circle cx="545.41mm" cy="703.21mm" r="6.35mm" fill="black" stoke-width="0"/>
<circle cx="576.97mm" cy="703.21mm" r="8.89mm" fill="black" stoke-width="0"/>
<circle cx="40.45mm" cy="734.77mm" r="6.35mm" fill="black" stoke-width="0"/>
<circle cx="72.01mm" cy="734.77mm" r="8.89mm" fill="black" stoke-width="0"/>
<circle cx="103.57mm" cy="734.77mm" r="6.35mm" fill="black" stoke-width="0"/>
<circle cx="135.13mm" cy="734.77mm" r="6.35mm" fill="black" stoke-width="0"/>
<circle cx="166.69mm" cy="734.77mm" r="8.89mm" fill="black" stoke-width="0"/>
<circle cx="198.25mm" cy="734.77mm" r="8.89mm" fill="black" stoke-width="0"/>
<circle cx="229.81mm" cy="734.77mm" r="8.89mm" fill="black" stoke-width="0"/>
<circle cx="261.37mm" cy="734.77mm" r="6.35mm" fill="black" stoke-width="0"/>
<circle cx="292.93mm" cy="734.77mm" r="6.35mm" fill="black" stoke-width="0"/>
<circle cx="324.49mm" cy="734.77mm" r="6.35mm" fill="black" stoke-width="0"/>
<circle cx="356.05mm" cy="734.77mm" r="8.89mm" fill="black" stoke-width="0"/>
<circle cx="387.61mm" cy="734.77mm" r="8.89mm" fill="black" stoke-width="0"/>
<circle cx="419.17mm" cy="734.77mm" r="6.35mm" fill="black" stoke-width="0"/>
<circle cx="450.73mm" cy="734.77mm" r="6.35mm" fill="black" stoke-width="0"/>
<circle cx="482.29mm" cy="734.77mm" r="6.35mm" fill="black" stoke-width="0"/>
<circle cx="513.85mm" cy="734.77mm" r="8.89mm" fill="black" stoke-width="0"/>
<circle cx="545.41mm" cy="734.77mm" r="6.35mm" fill="black" stoke-width="0"/>
<circle cx="576.97mm" cy="734.77mm" r="8.89mm" fill="black" stoke-width="0"/>
<circle cx="40.45mm" cy="766.33mm" r="8.89mm" fill="black" stoke-width="0"/>
<circle cx="72.01mm" cy="766.33mm" r="8.89mm" fill="black" stoke-width="0"/>
<circle cx="103.57mm" cy="766.33mm" r="6.35mm" fill="black" stoke-width="0"/>
<circle cx="135.13mm" cy="766.33mm" r="6.35mm" fill="black" stoke-width="0"/>
<circle cx="166.69mm" cy="766.33mm" r="8.89mm" fill="black" stoke-width="0"/>
<circle cx="198.25mm" cy="766.33mm" r="8.89mm" fill="black" stoke-width="0"/>
<circle cx="229.81mm" cy="766.33mm" r="6.35mm" fill="black" stoke-width="0"/>
<circle cx="261.37mm" cy="766.33mm" r="6.35mm" fill="black" stoke-width="0"/>
<circle cx="292.93mm" cy="766.33mm" r="6.35mm" fill="black" stoke-width="0"/>
<circle cx="324.49mm" cy="766.33mm" r="8.89mm" fill="black" stoke-width="0"/>
<circle cx="356.05mm" cy="766.33mm" r="8.89mm" fill="black" stoke-width="0"/>
<circle cx="387.61mm" cy="766.33mm" r="8.89mm" fill="black" stoke-width="0"/>
<circle cx="419.17mm" cy="766.33mm" r="6.35mm" fill="black" stoke-width="0"/>
<circle cx="450.73mm" cy="766.33mm" r="8.89mm" fill="black" stoke-width="0"/>
<circle cx="482.29mm" cy="766.33mm" r="6.35mm" fill="black" stoke-width="0"/>
<circle cx="513.85mm" cy="766.33mm" r="8.89mm" fill="black" stoke-width="0"/>
<circle cx="545.41mm" cy="766.33mm" r="6.35mm" fill="black" stoke-width="0"/>
<circle cx="576.97mm" cy="766.33mm" r="8.89mm" fill="black" stoke-width="0"/>
<circle cx="40.45mm" cy="797.89mm" r="8.89mm" fill="black" stoke-width="0"/>
<circle cx="72.01mm" cy="797.89mm" r="6.35mm" fill="black" stoke-width="0"/>
<circle cx="103.57mm" cy="797.89mm" r="8.89mm" fill="black" stoke-width="0"/>
<circle cx="135.13mm" cy="797.89mm" r="6.35mm" fill="black" stoke-width="0"/>
<circle cx="166.69mm" cy="797.89mm" r="6.35mm" fill="black" stoke-width="0"/>
<circle cx="198.25mm" cy="797.89mm" r="8.89mm" fill="black" stoke-width="0"/>
<circle cx="229.81mm" cy="797.89mm" r="6.35mm" fill="black" stoke-width="0"/>
<circle cx="261.37mm" cy="797.89mm" r="6.35mm" fill="black" stoke-width="0"/>
<circle cx="292.93mm" cy="797.89mm" r="8.89mm" fill="black" stoke-width="0"/>
<circle cx="324.49mm" cy="797.89mm" r="8.89mm" fill="black" stoke-width="0"/>
<circle cx="356.05mm" cy="797.89mm" r="8.89mm" fill="black" stoke-width="0"/>
<circle cx="387.61mm" cy="797.89mm" r="6.35mm" fill="black" stoke-width="0"/>
<circle cx="419.17mm" cy="797.89mm" r="6.35mm" fill="black" stoke-width="0"/>
<circle cx="450.73mm" cy="797.89mm" r="6.35mm" fill="black" stoke-width="0"/>
<circle cx="482.29mm" cy="797.89mm" r="8.89mm" fill="black" stoke-width="0"/>
<circle cx="513.85mm" cy="797.89mm" r="8.89mm" fill="black" stoke-width="0"/>
<circle cx="545.41mm" cy="797.89mm" r="8.89mm" fill="black" stoke-width="0"/>
<circle cx="576.97mm" cy="797.89mm" r="8.89mm" fill="black" stoke-width="0"/>
<rect x="-11.11mm" y="-11.11mm" fill="black" width="40mm" height="40mm" />
<circle cx="8.89mm" cy="8.89mm" fill="white" r="8.5mm" stroke="black" stroke-width="1" />
<line x1="0mm" x2="17.78mm" y1="8.89mm" y2="8.89mm" stroke="black" stroke-width="1"/>
<line x1="8.89mm" x2="8.89mm" y1="0mm" y2="17.78mm" stroke="black" stroke-width="1"/>
<rect x="556.97mm" y="-11.11mm" fill="black" width="40mm" height="40mm" />
<circle cx="576.97mm" cy="8.89mm" fill="white" r="8.5mm" stroke="black" stroke-width="1" />
<line x1="568.08mm" x2="585.86mm" y1="8.89mm" y2="8.89mm" stroke="black" stroke-width="1"/>
<line x1="576.97mm" x2="576.97mm" y1="0mm" y2="17.78mm" stroke="black" stroke-width="1"/>
<rect x="556.97mm" y="809.45mm" fill="black" width="40mm" height="40mm" />
<circle cx="576.97mm" cy="829.45mm" fill="white" r="8.5mm" stroke="black" stroke-width="1" />
<line x1="568.08mm" x2="585.86mm" y1="829.45mm" y2="829.45mm" stroke="black" stroke-width="1"/>
<line x1="576.97mm" x2="576.97mm" y1="820.56mm" y2="838.34mm" stroke="black" stroke-width="1"/>
<rect x="-11.11mm" y="809.45mm" fill="black" width="40mm" height="40mm" />
<circle cx="8.89mm" cy="829.45mm" fill="white" r="8.5mm" stroke="black" stroke-width="1" />
<line x1="0mm" x2="17.78mm" y1="829.45mm" y2="829.45mm" stroke="black" stroke-width="1"/>
<line x1="8.89mm" x2="8.89mm" y1="820.56mm" y2="838.34mm" stroke="black" stroke-width="1"/>
<rect x="-11.11mm" y="399.17mm" fill="black" width="40mm" height="40mm" />
<circle cx="8.89mm" cy="419.17mm" fill="white" r="8.5mm" stroke="black" stroke-width="1" />
<line x1="0mm" x2="17.78mm" y1="419.17mm" y2="419.17mm" stroke="black" stroke-width="1"/>
<line x1="8.89mm" x2="8.89mm" y1="410.28mm" y2="428.06mm" stroke="black" stroke-width="1"/>
</svg>
